<svg width="21" height="21" viewBox="0 0 21 21" fill="none" xmlns="http://www.w3.org/2000/svg">
<path d="M10.2373 2.45463C10.4048 2.38144 10.5953 2.38144 10.7628 2.45463C14.0168 3.87635 17.1007 5.61432 19.9758 7.62961C20.1839 7.77545 20.2891 8.0283 20.2458 8.27868C20.2026 8.52906 20.0187 8.73198 19.7738 8.79959C19.1745 8.96501 18.5803 9.14318 17.9916 9.33305C15.6019 10.1037 13.3015 11.0735 11.11 12.2227L11.1071 12.2242C11.0078 12.2763 10.9086 12.3288 10.8097 12.3816C10.6165 12.4849 10.3844 12.4849 10.1912 12.3816C10.0913 12.3283 9.99124 12.2753 9.89092 12.2227C8.80727 11.6544 7.69701 11.1301 6.5625 10.6519V10.4562C6.5625 10.3413 6.62149 10.2393 6.71276 10.184C8.02975 9.38613 9.38821 8.64994 10.7841 7.97944C11.1108 7.82252 11.2485 7.43046 11.0915 7.10375C10.9346 6.77705 10.5426 6.63942 10.2159 6.79634C8.78151 7.4853 7.38575 8.2417 6.03268 9.06143C5.63597 9.30177 5.36928 9.69512 5.28156 10.1358C4.5335 9.84805 3.77561 9.58002 3.00851 9.33264C2.41978 9.14278 1.82563 8.965 1.22635 8.79958C0.981421 8.73197 0.797528 8.52905 0.754285 8.27867C0.711042 8.02829 0.816221 7.77544 1.02429 7.6296C3.8994 5.61431 6.98335 3.87635 10.2373 2.45463Z" fill="#4070DB"/>
<path d="M11.4283 13.5392C13.5623 12.399 15.8043 11.4351 18.1351 10.6668C18.2525 11.9047 18.3275 13.155 18.3586 14.416C18.3653 14.6866 18.2052 14.9335 17.9554 15.0378C15.4607 16.0794 13.0877 17.3548 10.8639 18.8367C10.6436 18.9836 10.3565 18.9836 10.1361 18.8367C7.91234 17.3548 5.53939 16.0794 3.04465 15.0378C2.79489 14.9335 2.63477 14.6866 2.64143 14.416C2.6725 13.1549 2.74751 11.9045 2.86499 10.6665C3.67086 10.9321 4.46613 11.2211 5.25 11.5327V12.6443C4.85769 12.8713 4.59375 13.2954 4.59375 13.7812C4.59375 14.2147 4.80382 14.599 5.12769 14.838C5.04937 15.1711 4.93345 15.497 4.77992 15.809C5.17603 15.996 5.56875 16.189 5.95796 16.3878C6.17963 15.937 6.34035 15.4638 6.44013 14.9806C6.89893 14.7761 7.21875 14.316 7.21875 13.7812C7.21875 13.2954 6.95481 12.8713 6.5625 12.6443V12.0802C7.58747 12.528 8.59149 13.015 9.57267 13.5392C10.1524 13.849 10.8485 13.849 11.4283 13.5392Z" fill="#4070DB"/>
<path d="M3.90445 17.0295C4.27119 16.6628 4.56314 16.2497 4.77992 15.809C5.17603 15.996 5.56875 16.189 5.95796 16.3878C5.67923 16.9547 5.30393 17.4862 4.83252 17.9576C4.57624 18.2139 4.16073 18.2139 3.90445 17.9576C3.64816 17.7013 3.64816 17.2858 3.90445 17.0295Z" fill="#4070DB"/>
</svg>
