<svg width="40" height="41" viewBox="0 0 40 41" fill="none" xmlns="http://www.w3.org/2000/svg">
<g id="Frame 23">
<rect id="Rectangle 34" y="0.461609" width="40" height="40" rx="10" fill="#BDD3FF"/>
<g id="Union">
<path d="M25.8077 15.6539H15.1923V26.2693H25.8077V15.6539Z" fill="#4070DB"/>
<path fill-rule="evenodd" clip-rule="evenodd" d="M16.0769 9.46161C16.5655 9.46161 16.9615 9.85766 16.9615 10.3462V11.2308H19.6154V10.3462C19.6154 9.85766 20.0114 9.46161 20.5 9.46161C20.9886 9.46161 21.3846 9.85766 21.3846 10.3462V11.2308H24.0385V10.3462C24.0385 9.85766 24.4345 9.46161 24.9231 9.46161C25.4116 9.46161 25.8077 9.85766 25.8077 10.3462V11.2308H26.6923C28.6465 11.2308 30.2308 12.8151 30.2308 14.7693V15.6539H31.1154C31.6039 15.6539 32 16.05 32 16.5385C32 17.0271 31.6039 17.4231 31.1154 17.4231H30.2308V20.077H31.1154C31.6039 20.077 32 20.473 32 20.9616C32 21.4502 31.6039 21.8462 31.1154 21.8462H30.2308V24.5001H31.1154C31.6039 24.5001 32 24.8961 32 25.3847C32 25.8732 31.6039 26.2693 31.1154 26.2693H30.2308V27.1539C30.2308 29.1082 28.6465 30.6924 26.6923 30.6924H25.8077V31.577C25.8077 32.0656 25.4116 32.4616 24.9231 32.4616C24.4345 32.4616 24.0385 32.0656 24.0385 31.577V30.6924H21.3846V31.577C21.3846 32.0656 20.9886 32.4616 20.5 32.4616C20.0114 32.4616 19.6154 32.0656 19.6154 31.577V30.6924H16.9615V31.577C16.9615 32.0656 16.5655 32.4616 16.0769 32.4616C15.5884 32.4616 15.1923 32.0656 15.1923 31.577V30.6924H14.3077C12.3535 30.6924 10.7692 29.1082 10.7692 27.1539V26.2693H9.88462C9.39606 26.2693 9 25.8732 9 25.3847C9 24.8961 9.39606 24.5001 9.88462 24.5001H10.7692V21.8462H9.88462C9.39606 21.8462 9 21.4502 9 20.9616C9 20.473 9.39606 20.077 9.88462 20.077H10.7692V17.4231H9.88462C9.39606 17.4231 9 17.0271 9 16.5385C9 16.05 9.39606 15.6539 9.88462 15.6539H10.7692V14.7693C10.7692 12.8151 12.3535 11.2308 14.3077 11.2308H15.1923V10.3462C15.1923 9.85766 15.5884 9.46161 16.0769 9.46161ZM13.4231 14.7693C13.4231 14.2807 13.8191 13.8847 14.3077 13.8847H26.6923C27.1809 13.8847 27.5769 14.2807 27.5769 14.7693V27.1539C27.5769 27.6425 27.1809 28.0385 26.6923 28.0385H14.3077C13.8191 28.0385 13.4231 27.6425 13.4231 27.1539V14.7693Z" fill="#4070DB"/>
</g>
</g>
</svg>
