<svg width="321" height="245" viewBox="0 0 321 245" fill="none" xmlns="http://www.w3.org/2000/svg">
<g clip-path="url(#clip0_37_1550)">
<path d="M22.7888 232.428C22.7888 232.428 -6.95287 211.5 6.71657 185.19C20.3955 158.88 47.7438 118.492 34.0554 97.8958C20.3955 77.3086 19.0049 11.35 97.6443 1.23162C160.372 -6.83083 179.434 26.3474 189.159 48.9905C201.986 78.8623 190.521 133.386 250.496 140.577C310.481 147.767 344.744 177.469 301.778 225.891C283 247.046 22.7888 232.418 22.7888 232.418V232.428Z" fill="#C9D6F2"/>
<path d="M130.186 215.962C85.9234 225.654 49.8721 212.201 62.1698 189.311C74.4676 166.422 66.9281 163.532 57.4494 156.332C47.9612 149.132 26.6577 129.084 47.4125 107.067C68.1957 85.0584 52.4073 78.6728 45.9179 65.7218C26.9604 27.9391 103.831 12.4205 83.0287 47.1999C67.4106 73.301 68.2336 93.2819 87.6451 106.565C107.066 119.847 110.935 126.849 110.084 143.267C109.223 159.686 102.516 194.569 122.306 193.11C142.077 191.661 152.88 210.988 130.176 215.962H130.186Z" fill="#EBF2FF"/>
<path d="M49.7775 60.5678C47.7247 56.655 47.2423 37.4795 65.8213 38.4743C77.1258 39.0806 71.2607 54.5423 68.6971 66.4418C66.143 78.3412 67.8836 97.0241 72.6135 104.717C81.3449 118.909 79.4719 124.878 68.6687 137.062C68.6687 137.062 63.0591 146.109 73.4081 155.811C83.7572 165.512 79.7556 192.239 91.7791 196.568C103.803 200.898 110.595 210.126 102.355 210.988C94.1346 211.85 60.0319 215.176 69.0093 192.684C82.0922 159.951 56.5886 150.25 50.2316 142.983C44.4043 136.323 39.419 121.448 56.3237 102.784C69.3971 88.3459 56.0872 72.6094 49.7869 60.5678H49.7775Z" fill="#CBDBF4"/>
<path d="M95.7712 230.912L95.0901 233.915C94.4469 233.754 79.0274 229.87 62.4159 219.193C40.2989 204.972 26.8565 185.455 23.5645 162.699L26.4308 162.206C34.0743 215.043 95.1469 230.76 95.7618 230.912H95.7712Z" fill="#7585F8"/>
<path d="M25.6549 165.74C25.6549 165.74 9.59216 157.204 16.2519 137.545C16.2519 137.545 30.5078 149.141 25.6549 165.74Z" fill="#7585F8"/>
<path d="M30.8012 181.808C30.8012 181.808 8.90169 189.141 0 164.375C0 164.375 11.6829 160.084 30.8012 181.808Z" fill="#7585F8"/>
<path d="M30.0537 181.903C30.0537 181.903 50.3829 170.543 40.2514 146.346C40.2514 146.346 29.1551 152.107 30.0537 181.903Z" fill="#7585F8"/>
<path d="M42.2004 200.235C42.2004 200.235 21.086 209.908 9.82886 186.27C9.82886 186.27 21.0293 180.718 42.2004 200.235Z" fill="#7585F8"/>
<path d="M41.453 200.405C41.453 200.405 60.5902 186.905 48.1411 163.949C48.1411 163.949 37.6407 170.894 41.453 200.405Z" fill="#7585F8"/>
<path d="M60.3725 216.246C60.3725 216.246 41.1029 229.576 26.1753 208.364C26.1753 208.364 36.3257 200.86 60.3725 216.246Z" fill="#7585F8"/>
<path d="M59.6631 216.549C59.6631 216.549 76.3502 199.79 60.3726 179.458C60.3726 179.458 51.1398 188.193 59.6631 216.549Z" fill="#7585F8"/>
<path d="M79.0557 226.289C79.0557 226.289 63.7213 244.45 44.0449 228.127C44.0449 228.127 52.029 218.113 79.0557 226.289Z" fill="#7585F8"/>
<path d="M78.4596 226.772C78.4596 226.772 90.4925 206.033 70.0215 190.846C70.0215 190.846 63.2482 201.798 78.4596 226.772Z" fill="#7585F8"/>
<path d="M209.875 230.978C252.265 242.565 287.834 231.329 277.059 208.544C266.284 185.768 273.72 183.352 283.265 176.843C292.81 170.344 314.425 151.993 295.411 129.634C276.387 107.275 291.987 101.884 298.911 89.6628C319.127 54.0118 245.463 35.1678 263.882 69.8809C277.712 95.9346 275.933 115.233 256.465 127.133C237.016 139.032 232.92 145.626 232.939 161.562C232.957 177.497 237.725 211.613 218.635 209.226C199.555 206.838 188.137 225.019 209.875 230.959V230.978Z" fill="#7585F8"/>
<g style="mix-blend-mode:overlay" opacity="0.2">
<path d="M295.43 84.4899C297.615 80.8045 299.034 62.2542 280.994 62.2921C270.021 62.3206 274.94 77.5833 276.832 89.2365C278.714 100.89 276.104 118.89 271.147 126.11C261.99 139.421 263.503 145.295 273.37 157.62C273.37 157.62 278.346 166.668 267.836 175.545C257.335 184.432 259.889 210.505 248.036 214.105C236.174 217.696 229.136 226.308 237.072 227.539C245 228.78 277.863 233.697 270.267 211.471C259.227 179.117 284.4 170.988 290.918 164.271C296.887 158.113 302.449 143.949 287.011 125.049C275.063 110.411 288.742 95.8399 295.43 84.4899Z" fill="#F6F5F7"/>
</g>
<path d="M203.708 230.23L203.064 226.298C265.442 216.085 292.431 167.161 292.706 166.659L296.215 168.554C295.941 169.046 268.091 219.704 203.717 230.23H203.708Z" fill="#EBF2FF"/>
<path d="M292.441 170.003C292.441 170.003 300.586 148.904 311.209 155.64C315.722 158.502 313.29 168.734 292.441 170.003Z" fill="#EBF2FF"/>
<path d="M287.72 176.9C287.72 176.9 308.485 164.878 310.651 177.033C311.559 182.215 302.459 188.999 287.72 176.9Z" fill="#EBF2FF"/>
<path d="M287.758 179.146C287.758 179.146 300.472 159.724 287.38 157.848C281.808 157.033 274.581 165.56 287.758 179.146Z" fill="#EBF2FF"/>
<path d="M273.928 193.224C273.928 193.224 287.616 174.276 274.685 171.813C269.179 170.752 261.564 178.966 273.928 193.224Z" fill="#EBF2FF"/>
<path d="M261.8 203.949C261.8 203.949 275.385 184.982 262.453 182.537C256.938 181.486 249.351 189.728 261.8 203.949Z" fill="#EBF2FF"/>
<path d="M244.858 214.503C244.858 214.503 261.63 197.753 249.635 193.148C244.517 191.187 235.616 198.188 244.858 214.503Z" fill="#EBF2FF"/>
<path d="M230.176 221.201C230.176 221.201 246.466 204.043 234.272 199.79C229.107 197.99 220.376 205.199 230.176 221.201Z" fill="#EBF2FF"/>
<path d="M210.084 226.98C210.084 226.98 230.384 214.171 220.329 206.81C216.034 203.665 205.761 208.563 210.084 226.98Z" fill="#EBF2FF"/>
<path d="M277.57 189.614C277.57 189.614 298.372 177.592 300.51 189.757C301.428 194.929 292.346 201.694 277.57 189.614Z" fill="#EBF2FF"/>
<path d="M265.159 200.822C265.159 200.822 285.951 188.819 288.099 200.974C289.026 206.137 279.925 212.921 265.159 200.822Z" fill="#EBF2FF"/>
<path d="M251.527 209.936C251.527 209.936 274.202 202.367 273.247 214.958C272.859 220.32 262.538 225.161 251.527 209.936Z" fill="#EBF2FF"/>
<path d="M235.427 218.491C235.427 218.491 258.594 213.091 256.21 225.673C255.198 231.026 244.536 234.891 235.427 218.491Z" fill="#EBF2FF"/>
<path d="M218.352 224.479C218.352 224.479 241.727 222.158 237.46 234.503C235.616 239.751 224.633 242.196 218.352 224.479Z" fill="#EBF2FF"/>
<path d="M300.728 236.019C300.728 240.983 236.893 245 158.14 245C79.3868 245 15.552 240.973 15.552 236.019C15.552 231.064 79.3963 227.037 158.14 227.037C236.883 227.037 300.728 231.054 300.728 236.019Z" fill="#ACBFE2"/>
<path d="M266.001 134.864C266.001 190.136 221.265 234.929 166.077 234.929C110.888 234.929 66.1526 190.126 66.1526 134.864C66.1526 79.6013 110.888 34.7888 166.077 34.7888C221.265 34.7888 266.001 79.5918 266.001 134.864Z" fill="#7399E5"/>
<path d="M174.988 172.059C177.892 176.787 174.959 183.883 168.442 187.89C161.924 191.898 154.28 191.31 151.386 186.573L118.021 132.154C115.117 127.417 118.04 120.33 124.567 116.323C131.085 112.315 138.728 112.903 141.623 117.63L174.988 172.049V172.059Z" fill="#F6F5F7"/>
<path d="M173.777 183.939C169.776 190.467 161.243 192.514 154.734 188.506C148.207 184.498 146.173 175.953 150.175 169.425L196.15 94.3809C200.151 87.8532 208.684 85.8068 215.202 89.8144C221.719 93.8219 223.763 102.358 219.761 108.895L173.777 183.949V183.939Z" fill="#F6F5F7"/>
<path d="M92.744 120.994C94.1251 120.349 98.6847 119.999 101.059 123.599C104.266 128.421 105.363 140.15 112.515 143.694C119.686 147.218 124.151 144.215 127.395 142.576C130.64 140.955 131.179 138.767 133.194 138.028C135.181 137.298 135.966 139.714 131.368 143.58C129.155 145.427 119.411 155.877 110.112 153.262C97.909 149.823 84.5423 124.745 92.7345 121.003L92.744 120.994Z" fill="#E28C71"/>
<path d="M103.348 196.748C101.352 208.989 99.7348 234.938 105.099 234.73C110.472 234.522 113.347 232.542 110.197 231.784C107.028 231.026 106.915 230.666 106.943 229.69C107.189 223.57 111.91 211.916 113.698 202.992C115.769 192.646 105.117 186.033 103.348 196.729V196.748Z" fill="#F27851"/>
<path d="M102.658 232.276C102.658 232.276 107.473 234.02 110.197 231.793C110.197 231.793 115.514 232.238 112.288 233.858C109.081 235.488 102.762 237.061 102.658 232.276Z" fill="#6E86CC"/>
<path d="M83.672 146.432C83.672 146.432 111.333 165.882 115.315 175.83C118.891 184.773 110.595 220.813 110.595 220.813C110.595 220.813 104.767 223.143 99.4132 219.856L100.113 191.831L76.7664 170.448L83.672 146.441V146.432Z" fill="#7993C9"/>
<path d="M65.8212 198.264C55.6046 206.715 36.0512 226.478 40.5351 230.097C45.0096 233.707 48.7273 234.143 46.7029 231.329C44.6974 228.477 44.8393 228.089 45.5583 227.34C50.0612 222.584 62.0373 216.511 69.7281 210.6C78.6771 203.74 74.7418 190.893 65.8118 198.264H65.8212Z" fill="#F27851"/>
<path d="M40.2893 226.402C40.2893 226.402 42.9475 231.196 46.703 231.329C46.703 231.329 50.6667 235.422 46.9395 234.455C43.2124 233.498 37.0351 230.325 40.2893 226.402Z" fill="#6E86CC"/>
<path d="M79.5665 146.289C79.5665 146.289 93.9171 179.032 90.1331 189.842C86.7371 199.572 54.744 222.755 54.744 222.755C54.744 222.755 48.4059 220.519 46.4004 214.095L66.6633 192.011C66.6633 192.011 58.5657 166.488 62.5388 157.024C62.6807 156.701 61.9807 159.278 61.9807 159.278L79.5665 146.289Z" fill="#86A4E0"/>
<path d="M96.8306 160.785C102.128 153.783 105.127 142.926 105.335 134.494C105.628 122.803 95.317 119.79 88.7613 119.175C82.2057 118.54 71.4877 117.27 71.9323 131.841C72.2256 142.007 68.5362 147.313 63.3901 155.915C63.2482 156.142 63.1158 156.332 62.9739 156.54C62.9549 156.54 62.9455 156.512 62.9455 156.512C62.9455 156.531 62.9549 156.54 62.9739 156.54C55.7182 165.465 90.8141 168.743 96.8306 160.794V160.785Z" fill="#B0CAFC"/>
<path d="M63.3901 155.896C63.2482 156.124 63.1158 156.313 62.9739 156.521C62.955 156.521 62.9455 156.493 62.9455 156.493C62.9455 156.512 62.955 156.521 62.9739 156.521C57.3547 163.428 77.069 166.933 89.0735 164.518C90.9371 161.723 81.9124 160.984 78.5731 158.274C70.8728 152.021 98.3252 151.491 93.5953 149.188C88.487 146.725 80.8908 147.711 84.2395 140.226C87.5694 132.732 84.7031 123.77 81.534 120.738C78.2326 117.564 72.708 121.287 72.1026 128.184C71.9512 129.283 71.8661 130.477 71.9134 131.832C72.2067 141.998 68.5173 147.303 63.3712 155.906L63.3901 155.896Z" fill="#8FAFEF"/>
<path d="M89.6978 110.6C89.6978 110.6 91.1451 116.143 87.0585 118.189C82.8678 120.274 95.7142 130.525 95.9223 127.483C96.1872 123.561 94.6358 120.918 97.3413 116.863L89.7072 110.6H89.6978Z" fill="#E67052"/>
<path d="M99.5739 102.462C102.27 106.148 103.263 120.33 99.2901 122.689C97.5495 123.694 91.6844 121.088 88.9033 114.419C87.7492 111.681 86.6329 106.735 89.9533 102.595C91.4574 100.71 96.4427 98.18 99.5739 102.472V102.462Z" fill="#EE9D7F"/>
<path d="M87.9006 102.386C84.391 106.801 85.933 111.055 86.1789 111.842C87.0871 114.703 89.4142 117.365 90.1237 116.541C90.9656 115.555 87.7776 114.523 89.2439 111.69C90.7102 108.857 88.8466 107.853 89.8209 105.314C90.7669 102.784 92.6305 103.656 98.5429 103.836C100.965 103.912 101.57 103.088 101.485 102.083C98.4861 97.7821 91.5994 97.7442 87.9195 102.386H87.9006Z" fill="#062440"/>
<path d="M101.948 105.532C103.386 102.112 108.523 102.926 106.886 100.511C105.789 98.8905 105.78 100.113 93.5576 97.6115C87.8533 96.4462 86.7276 98.8905 85.6397 102.112C84.6275 105.087 84.9492 112.401 88.8561 116.702C92.7535 120.994 88.7331 113.841 90.2278 110.601C91.7224 107.37 92.7062 108.734 94.8631 109.274C97.0104 109.805 99.6403 111.055 101.958 105.541L101.948 105.532Z" fill="#353A66"/>
<path d="M61.6685 165.598L72.027 180.462L155.368 122.187L166.076 103.647L145 107.322L61.6685 165.598Z" fill="#494C7F"/>
<path d="M150.751 115.558L67.4067 173.832L72.0258 180.458L155.37 122.185L150.751 115.558Z" fill="#373C66"/>
<path d="M166.076 103.647L163.182 108.668L160.382 104.641L166.076 103.647Z" fill="#1F1440"/>
<path d="M79.1408 119.838C80.6922 119.961 83.3977 122.31 83.7478 126.669C84.2397 132.505 80.9382 143.002 85.5357 149.634C90.152 156.285 95.582 155.811 99.2524 155.962C102.942 156.124 104.484 154.456 106.612 154.769C108.741 155.091 108.249 157.63 102.28 158.795C99.4321 159.354 85.6776 163.807 78.7246 156.919C69.6148 147.891 70.0594 119.118 79.1408 119.838Z" fill="#E28C71"/>
</g>
<defs>
<clipPath id="clip0_37_1550">
<rect width="321" height="245" fill="white"/>
</clipPath>
</defs>
</svg>
