<svg width="40" height="40" viewBox="0 0 40 40" fill="none" xmlns="http://www.w3.org/2000/svg">
<rect width="40" height="40" rx="10" fill="#BDD3FF"/>
<path fill-rule="evenodd" clip-rule="evenodd" d="M20.5157 10.1698C20.2265 9.89587 19.7735 9.89587 19.4843 10.1698C17.4675 12.0798 14.7462 13.2501 11.75 13.2501C11.7023 13.2501 11.6547 13.2498 11.6072 13.2492C11.2798 13.2452 10.9877 13.4539 10.8854 13.7649C10.4729 15.0197 10.25 16.3596 10.25 17.7502C10.25 23.6922 14.3141 28.6831 19.8131 30.0984C19.9357 30.13 20.0643 30.13 20.1869 30.0984C25.6859 28.6831 29.75 23.6922 29.75 17.7502C29.75 16.3596 29.5271 15.0197 29.1146 13.7649C29.0123 13.4539 28.7202 13.2452 28.3928 13.2492C28.3453 13.2498 28.2977 13.2501 28.25 13.2501C25.2538 13.2501 22.5325 12.0798 20.5157 10.1698ZM23.6103 18.1859C23.8511 17.8489 23.773 17.3805 23.4359 17.1397C23.0989 16.8989 22.6305 16.977 22.3897 17.3141L19.1543 21.8436L17.5303 20.2197C17.2374 19.9268 16.7626 19.9268 16.4697 20.2197C16.1768 20.5126 16.1768 20.9874 16.4697 21.2803L18.7197 23.5303C18.8756 23.6862 19.0921 23.7656 19.3119 23.7474C19.5316 23.7293 19.7322 23.6153 19.8603 23.4359L23.6103 18.1859Z" fill="#4070DB"/>
</svg>
