<svg width="32" height="32" viewBox="0 0 32 32" fill="none" xmlns="http://www.w3.org/2000/svg">
<g id="heroicons-solid/check-circle">
<path id="Subtract" fill-rule="evenodd" clip-rule="evenodd" d="M3 16C3 8.8203 8.8203 3 16 3C23.1797 3 29 8.8203 29 16C29 23.1797 23.1797 29 16 29C8.8203 29 3 23.1797 3 16ZM20.8137 13.5812C21.1347 13.1318 21.0307 12.5073 20.5812 12.1863C20.1318 11.8653 19.5073 11.9693 19.1863 12.4188L14.8724 18.4582L12.7071 16.2929C12.3166 15.9024 11.6834 15.9024 11.2929 16.2929C10.9024 16.6834 10.9024 17.3166 11.2929 17.7071L14.2929 20.7071C14.5007 20.915 14.7895 21.0208 15.0825 20.9966C15.3754 20.9723 15.6429 20.8204 15.8137 20.5812L20.8137 13.5812Z" fill="#788FBF"/>
</g>
</svg>
