<svg width="318" height="304" viewBox="0 0 318 304" fill="none" xmlns="http://www.w3.org/2000/svg">
<g clip-path="url(#clip0_41_1799)">
<path d="M298.699 206.116C268.01 277.865 187 308.683 123.528 303.428C106.198 301.994 71.3283 299.107 44.1026 273.354C-8.18336 223.897 -0.131351 120.519 49.9218 59.6557C56.3673 51.8179 100.984 -0.695932 170.511 0.00652499C221.415 0.521154 257.143 29.2828 261.488 32.8657C266.976 37.392 279.082 48.1482 289.991 65.2124C315.624 105.307 317.877 161.28 298.699 206.115V206.116Z" fill="#FEDADA"/>
<path d="M89.6662 198.945C89.5978 198.945 89.5294 198.927 89.4665 198.889C89.2874 198.778 89.2309 198.544 89.3416 198.363C89.6098 197.928 89.8844 197.495 90.1655 197.066C90.2817 196.89 90.5172 196.841 90.6941 196.956C90.87 197.072 90.9188 197.309 90.8038 197.485C90.5259 197.907 90.2556 198.334 89.9918 198.763C89.9202 198.88 89.7943 198.945 89.6662 198.945Z" fill="#FA9191"/>
<path d="M181.678 212.76C181.508 212.76 181.354 212.646 181.309 212.473C181.065 211.526 180.79 210.576 180.491 209.65C180.427 209.45 180.536 209.235 180.737 209.17C180.937 209.105 181.153 209.216 181.218 209.417C181.521 210.358 181.801 211.322 182.048 212.283C182.1 212.487 181.978 212.696 181.774 212.748C181.741 212.757 181.71 212.76 181.678 212.76ZM179.161 205.411C179.013 205.411 178.872 205.325 178.81 205.18C178.423 204.284 178.005 203.388 177.566 202.517C177.472 202.329 177.547 202.099 177.736 202.005C177.925 201.909 178.154 201.985 178.248 202.174C178.693 203.058 179.119 203.967 179.512 204.878C179.595 205.071 179.506 205.296 179.313 205.379C179.264 205.401 179.212 205.411 179.162 205.411H179.161ZM175.54 198.537C175.413 198.537 175.289 198.474 175.216 198.359C174.696 197.534 174.145 196.712 173.578 195.917C173.456 195.746 173.496 195.508 173.667 195.385C173.839 195.262 174.077 195.303 174.199 195.474C174.775 196.281 175.335 197.115 175.862 197.952C175.975 198.13 175.921 198.365 175.743 198.478C175.68 198.519 175.609 198.537 175.54 198.537ZM93.3166 193.769C93.2331 193.769 93.1484 193.741 93.0778 193.684C92.9139 193.551 92.8879 193.311 93.0192 193.148C93.6401 192.374 94.2925 191.611 94.9568 190.878C95.0979 190.722 95.34 190.71 95.4963 190.852C95.6526 190.993 95.6634 191.236 95.5223 191.392C94.8667 192.114 94.2252 192.866 93.6141 193.626C93.5392 193.721 93.4284 193.769 93.3166 193.769ZM170.912 192.296C170.806 192.296 170.7 192.252 170.624 192.165C169.982 191.424 169.314 190.696 168.636 190C168.49 189.849 168.493 189.607 168.644 189.46C168.795 189.314 169.036 189.316 169.183 189.468C169.87 190.175 170.55 190.914 171.201 191.665C171.339 191.825 171.322 192.066 171.163 192.204C171.09 192.267 171.001 192.297 170.914 192.297L170.912 192.296ZM98.6376 188.109C98.5345 188.109 98.4303 188.066 98.3554 187.984C98.2132 187.829 98.2251 187.586 98.3804 187.444C99.112 186.777 99.8729 186.122 100.642 185.498C100.806 185.365 101.046 185.39 101.179 185.554C101.312 185.718 101.286 185.958 101.122 186.091C100.365 186.706 99.6145 187.351 98.8938 188.009C98.8211 188.075 98.7288 188.109 98.6365 188.109H98.6376ZM165.394 186.831C165.307 186.831 165.219 186.802 165.148 186.741C164.401 186.108 163.628 185.49 162.852 184.907C162.684 184.78 162.65 184.541 162.776 184.373C162.903 184.204 163.142 184.17 163.31 184.297C164.098 184.89 164.883 185.516 165.641 186.159C165.802 186.294 165.823 186.535 165.686 186.696C165.611 186.785 165.502 186.831 165.395 186.831H165.394ZM104.757 183.323C104.634 183.323 104.513 183.263 104.439 183.152C104.322 182.977 104.37 182.74 104.546 182.623C105.371 182.072 106.223 181.54 107.077 181.04C107.259 180.933 107.492 180.994 107.599 181.176C107.706 181.359 107.645 181.592 107.462 181.699C106.62 182.192 105.781 182.716 104.969 183.258C104.904 183.301 104.83 183.322 104.757 183.322V183.323ZM159.101 182.282C159.034 182.282 158.965 182.263 158.903 182.226C158.069 181.717 157.211 181.226 156.351 180.768C156.164 180.669 156.094 180.438 156.194 180.252C156.292 180.067 156.522 179.995 156.71 180.095C157.583 180.56 158.455 181.058 159.301 181.575C159.48 181.685 159.538 181.92 159.428 182.099C159.357 182.217 159.231 182.282 159.103 182.282H159.101ZM111.535 179.524C111.391 179.524 111.253 179.441 111.189 179.302C111.1 179.111 111.183 178.884 111.375 178.795C112.272 178.38 113.196 177.984 114.119 177.622C114.315 177.545 114.536 177.641 114.614 177.838C114.691 178.034 114.594 178.256 114.399 178.333C113.489 178.69 112.579 179.08 111.695 179.489C111.643 179.513 111.588 179.525 111.535 179.525V179.524ZM152.183 178.756C152.134 178.756 152.084 178.747 152.036 178.727C151.138 178.354 150.215 178.001 149.291 177.678C149.092 177.609 148.987 177.392 149.057 177.192C149.126 176.993 149.343 176.888 149.543 176.957C150.481 177.284 151.419 177.642 152.33 178.021C152.526 178.103 152.617 178.325 152.537 178.521C152.476 178.667 152.334 178.756 152.185 178.756H152.183ZM118.815 176.815C118.649 176.815 118.496 176.705 118.448 176.538C118.391 176.335 118.508 176.125 118.71 176.066C119.662 175.793 120.636 175.546 121.603 175.33C121.808 175.285 122.012 175.413 122.059 175.62C122.105 175.826 121.975 176.029 121.77 176.076C120.817 176.289 119.859 176.532 118.921 176.801C118.886 176.811 118.85 176.816 118.815 176.816V176.815ZM144.805 176.334C144.774 176.334 144.744 176.331 144.714 176.323C143.767 176.091 142.801 175.884 141.84 175.707C141.633 175.669 141.496 175.469 141.534 175.263C141.572 175.055 141.771 174.918 141.978 174.956C142.953 175.135 143.935 175.346 144.895 175.582C145.099 175.632 145.225 175.839 145.175 176.043C145.133 176.217 144.976 176.334 144.805 176.334ZM126.427 175.261C126.237 175.261 126.073 175.12 126.049 174.927C126.023 174.718 126.172 174.528 126.38 174.501C127.362 174.379 128.362 174.283 129.351 174.218C129.558 174.205 129.743 174.364 129.757 174.574C129.771 174.785 129.611 174.966 129.401 174.98C128.427 175.044 127.443 175.138 126.474 175.259C126.458 175.261 126.442 175.263 126.427 175.263V175.261ZM137.142 175.066C137.132 175.066 137.12 175.066 137.109 175.065C136.138 174.98 135.152 174.922 134.175 174.893C133.964 174.887 133.798 174.711 133.805 174.5C133.811 174.293 133.98 174.13 134.186 174.13C134.19 174.13 134.193 174.13 134.198 174.13C135.189 174.159 136.19 174.218 137.176 174.304C137.386 174.322 137.541 174.507 137.522 174.718C137.505 174.916 137.338 175.066 137.142 175.066Z" fill="#FA9191"/>
<path d="M182.875 218.999C182.687 218.999 182.522 218.858 182.498 218.666C182.434 218.166 182.363 217.666 182.285 217.167C182.251 216.958 182.395 216.763 182.602 216.73C182.809 216.697 183.006 216.84 183.038 217.048C183.119 217.555 183.19 218.062 183.255 218.571C183.281 218.78 183.134 218.971 182.924 218.997C182.908 218.999 182.892 219.001 182.875 219.001V218.999Z" fill="#FA9191"/>
<path d="M172.487 256.666C172.405 256.666 172.322 256.639 172.252 256.585C172.087 256.454 172.058 256.215 172.188 256.048C172.501 255.651 172.807 255.249 173.106 254.844C173.231 254.675 173.47 254.638 173.64 254.764C173.81 254.889 173.845 255.129 173.721 255.298C173.417 255.71 173.105 256.117 172.788 256.521C172.713 256.616 172.601 256.666 172.487 256.666Z" fill="#FA9191"/>
<path d="M132.535 275.981H132.532C131.493 275.977 130.438 275.939 129.398 275.87C129.187 275.856 129.027 275.675 129.042 275.464C129.056 275.254 129.24 275.095 129.448 275.108C130.472 275.175 131.511 275.212 132.536 275.217C132.746 275.217 132.917 275.389 132.916 275.6C132.915 275.809 132.744 275.98 132.534 275.98L132.535 275.981ZM137.587 275.752C137.393 275.752 137.227 275.604 137.209 275.407C137.188 275.197 137.342 275.01 137.553 274.991C138.573 274.893 139.605 274.763 140.618 274.602C140.825 274.57 141.022 274.712 141.054 274.919C141.088 275.128 140.946 275.323 140.738 275.356C139.708 275.518 138.661 275.651 137.624 275.75C137.612 275.751 137.599 275.752 137.587 275.752ZM124.4 275.287C124.38 275.287 124.358 275.285 124.337 275.282C123.309 275.11 122.274 274.904 121.261 274.671C121.056 274.623 120.928 274.419 120.974 274.212C121.022 274.007 121.227 273.88 121.432 273.926C122.43 274.156 123.45 274.359 124.463 274.528C124.67 274.563 124.812 274.76 124.777 274.968C124.745 275.155 124.585 275.287 124.401 275.287H124.4ZM145.628 274.321C145.458 274.321 145.304 274.207 145.258 274.037C145.205 273.832 145.327 273.624 145.53 273.571C146.522 273.31 147.52 273.014 148.493 272.691C148.695 272.624 148.909 272.734 148.975 272.933C149.041 273.133 148.933 273.349 148.733 273.415C147.744 273.742 146.731 274.043 145.724 274.308C145.692 274.317 145.659 274.321 145.626 274.321H145.628ZM116.482 273.3C116.441 273.3 116.399 273.294 116.359 273.28C115.373 272.946 114.385 272.577 113.421 272.183C113.225 272.104 113.132 271.88 113.211 271.686C113.291 271.491 113.513 271.398 113.708 271.477C114.658 271.866 115.632 272.229 116.602 272.558C116.802 272.625 116.909 272.842 116.841 273.042C116.787 273.201 116.639 273.301 116.479 273.301L116.482 273.3ZM153.331 271.607C153.185 271.607 153.046 271.522 152.983 271.381C152.897 271.189 152.983 270.963 153.175 270.876C154.112 270.457 155.047 270.003 155.956 269.528C156.142 269.43 156.373 269.501 156.47 269.688C156.568 269.875 156.496 270.106 156.31 270.203C155.387 270.686 154.436 271.147 153.485 271.572C153.434 271.595 153.382 271.606 153.33 271.606L153.331 271.607ZM108.986 270.065C108.926 270.065 108.865 270.051 108.807 270.02C107.889 269.532 106.973 269.009 106.085 268.464C105.906 268.353 105.849 268.118 105.959 267.938C106.07 267.758 106.305 267.702 106.484 267.812C107.358 268.348 108.261 268.865 109.166 269.346C109.351 269.445 109.423 269.676 109.323 269.862C109.255 269.991 109.122 270.065 108.985 270.065H108.986ZM160.493 267.679C160.369 267.679 160.248 267.618 160.174 267.507C160.058 267.331 160.107 267.094 160.282 266.978C161.139 266.414 161.99 265.815 162.812 265.199C162.98 265.072 163.22 265.107 163.346 265.276C163.473 265.444 163.438 265.684 163.27 265.81C162.435 266.435 161.571 267.043 160.703 267.616C160.638 267.658 160.565 267.679 160.493 267.679ZM102.115 265.66C102.035 265.66 101.954 265.634 101.884 265.582C101.056 264.95 100.238 264.285 99.4506 263.604C99.2911 263.466 99.2737 263.225 99.4116 263.065C99.5494 262.906 99.7904 262.888 99.9499 263.026C100.725 263.697 101.531 264.353 102.348 264.974C102.515 265.102 102.547 265.341 102.419 265.509C102.344 265.608 102.231 265.659 102.115 265.659V265.66ZM166.936 262.653C166.833 262.653 166.73 262.612 166.655 262.529C166.513 262.374 166.523 262.133 166.679 261.989C167.436 261.297 168.179 260.57 168.891 259.832C169.038 259.68 169.279 259.677 169.431 259.822C169.583 259.969 169.587 260.21 169.441 260.362C168.718 261.111 167.962 261.848 167.195 262.552C167.121 262.619 167.029 262.652 166.936 262.652V262.653ZM96.0466 260.199C95.9457 260.199 95.8447 260.159 95.7698 260.08C95.0577 259.327 94.3576 258.538 93.6857 257.736C93.55 257.574 93.5717 257.333 93.7335 257.198C93.8963 257.064 94.1362 257.085 94.2708 257.246C94.9318 258.036 95.6233 258.814 96.3245 259.555C96.4699 259.708 96.4623 259.95 96.3093 260.095C96.2355 260.164 96.1421 260.199 96.0477 260.199H96.0466ZM90.9286 253.836C90.806 253.836 90.6866 253.777 90.6128 253.668C90.0255 252.806 89.4589 251.916 88.9281 251.022C88.8206 250.84 88.8803 250.606 89.0616 250.498C89.2429 250.391 89.4773 250.449 89.5848 250.632C90.108 251.512 90.667 252.39 91.2445 253.239C91.3639 253.412 91.3183 253.65 91.1435 253.768C91.0784 253.813 91.0035 253.835 90.9297 253.835L90.9286 253.836ZM86.8928 246.736C86.7485 246.736 86.6106 246.655 86.5466 246.516C86.1059 245.57 85.6901 244.6 85.3113 243.631C85.2343 243.435 85.3309 243.213 85.5273 243.136C85.7238 243.06 85.9452 243.156 86.0223 243.352C86.3968 244.306 86.806 245.262 87.2391 246.192C87.3281 246.383 87.2456 246.61 87.0546 246.699C87.0025 246.723 86.9471 246.735 86.8939 246.735L86.8928 246.736ZM84.0576 239.077C83.8915 239.077 83.7374 238.966 83.6907 238.797C83.4096 237.793 83.1567 236.768 82.9396 235.751C82.8951 235.545 83.0264 235.342 83.2326 235.298C83.4367 235.254 83.6419 235.385 83.6853 235.591C83.8991 236.593 84.1488 237.603 84.4256 238.591C84.4831 238.794 84.3637 239.005 84.1607 239.061C84.126 239.071 84.0913 239.075 84.0576 239.075V239.077Z" fill="#FA9191"/>
<path d="M82.4989 231.041C82.3068 231.041 82.1418 230.897 82.1201 230.701C82.0637 230.192 82.0148 229.682 81.9736 229.172C81.9573 228.961 82.1136 228.777 82.3231 228.761C82.5402 228.744 82.7171 228.901 82.7345 229.111C82.7747 229.613 82.8224 230.116 82.8789 230.618C82.9017 230.827 82.7508 231.016 82.5413 231.039C82.5272 231.04 82.5131 231.041 82.4989 231.041Z" fill="#FA9191"/>
<path d="M93.9484 223.286C93.9093 223.542 94.0363 223.794 94.2654 223.914L100.8 227.352C101.068 230.79 101.886 234.21 103.279 237.475L99.0794 243.543C98.9318 243.756 98.9361 244.039 99.0892 244.248L104.33 251.388C104.483 251.597 104.752 251.686 104.998 251.609L112.044 249.419C114.742 251.725 117.758 253.532 120.957 254.817L122.278 262.083C122.325 262.338 122.527 262.534 122.783 262.573L131.536 263.915C131.792 263.955 132.044 263.827 132.164 263.598L135.601 257.062C139.039 256.794 142.458 255.976 145.722 254.583L151.789 258.783C152.001 258.931 152.284 258.927 152.493 258.773L159.632 253.532C159.841 253.379 159.93 253.109 159.853 252.863L157.663 245.816C159.969 243.119 161.775 240.1 163.06 236.901L170.324 235.579C170.578 235.533 170.776 235.33 170.815 235.075L172.158 226.319C172.197 226.063 172.07 225.811 171.841 225.691L165.306 222.253C165.038 218.815 164.219 215.395 162.827 212.13L167.026 206.062C167.174 205.849 167.17 205.566 167.017 205.357L161.776 198.217C161.623 198.008 161.354 197.919 161.107 197.996L154.061 200.186C151.364 197.879 148.347 196.073 145.148 194.787L143.827 187.521C143.78 187.266 143.578 187.07 143.322 187.031L134.569 185.689C134.313 185.65 134.061 185.777 133.94 186.006L130.504 192.542C127.066 192.81 123.647 193.628 120.383 195.021L114.316 190.821C114.103 190.673 113.821 190.678 113.612 190.831L106.473 196.072C106.264 196.226 106.175 196.495 106.252 196.741L108.442 203.789C106.136 206.487 104.33 209.504 103.045 212.703L95.7807 214.025C95.5256 214.071 95.3291 214.273 95.29 214.53L93.9484 223.285V223.286Z" fill="#FA9191"/>
<path d="M133.047 233.238C131.155 233.238 129.252 232.606 127.683 231.309C125.945 229.874 124.87 227.848 124.656 225.604C124.443 223.36 125.114 221.168 126.549 219.429C129.511 215.841 134.839 215.333 138.426 218.296C140.163 219.731 141.238 221.757 141.452 224.001C141.666 226.246 140.994 228.438 139.559 230.176C137.893 232.194 135.478 233.238 133.047 233.238ZM133.061 217.513C130.959 217.513 128.873 218.415 127.433 220.159C126.192 221.662 125.612 223.556 125.797 225.495C125.982 227.434 126.911 229.186 128.413 230.426C131.512 232.986 136.118 232.547 138.677 229.446C139.918 227.944 140.499 226.049 140.313 224.11C140.129 222.171 139.199 220.42 137.697 219.18C136.341 218.059 134.696 217.513 133.061 217.513Z" fill="#FBBDBD"/>
<path d="M133.289 246.768C132.17 246.768 131.044 246.682 129.917 246.509C124.123 245.621 119.023 242.529 115.555 237.804C114.842 236.832 114.209 235.804 113.666 234.737C113.654 234.713 113.641 234.688 113.629 234.664C113.619 234.645 113.61 234.626 113.601 234.607C113.589 234.584 113.578 234.56 113.566 234.537C113.531 234.468 113.498 234.398 113.464 234.329C113.375 234.143 113.287 233.955 113.204 233.767L114.249 233.299C114.85 234.641 115.6 235.929 116.479 237.127C119.765 241.605 124.6 244.535 130.091 245.378C135.583 246.22 141.072 244.873 145.551 241.586C151.095 237.514 154.034 231.191 154.032 224.787C154.032 220.515 152.723 216.208 150.008 212.508C146.721 208.029 141.886 205.099 136.395 204.257C130.904 203.414 125.414 204.761 120.935 208.049C117.896 210.281 115.522 213.287 114.071 216.745L113.016 216.303C114.547 212.653 117.052 209.48 120.258 207.126C124.982 203.657 130.774 202.235 136.568 203.124C142.362 204.012 147.462 207.104 150.93 211.829C153.795 215.733 155.175 220.278 155.177 224.785C155.178 231.542 152.078 238.212 146.227 242.508C142.421 245.303 137.923 246.769 133.289 246.769V246.768Z" fill="#FBBDBD"/>
<path d="M182.784 251.061C182.716 251.061 182.648 251.042 182.585 251.004C182.406 250.893 182.349 250.659 182.46 250.479C182.732 250.036 183.029 249.601 183.341 249.188C183.468 249.019 183.707 248.986 183.875 249.114C184.044 249.241 184.076 249.481 183.949 249.648C183.652 250.042 183.368 250.456 183.109 250.877C183.037 250.994 182.911 251.059 182.783 251.059L182.784 251.061Z" fill="#FA9191"/>
<path d="M210.136 251.373C210.005 251.373 209.878 251.306 209.807 251.184C209.45 250.575 209.047 249.984 208.61 249.425C208.447 249.217 208.281 249.016 208.109 248.819C207.972 248.659 207.988 248.418 208.147 248.28C208.306 248.142 208.548 248.158 208.686 248.318C208.865 248.524 209.041 248.737 209.211 248.954C209.669 249.538 210.092 250.159 210.466 250.798C210.572 250.979 210.512 251.214 210.33 251.32C210.27 251.356 210.203 251.372 210.138 251.372L210.136 251.373ZM187.113 246.431C186.994 246.431 186.877 246.376 186.803 246.271C186.68 246.1 186.72 245.862 186.892 245.739C187.721 245.147 188.609 244.63 189.531 244.204C189.723 244.115 189.948 244.2 190.037 244.391C190.126 244.582 190.043 244.809 189.852 244.898C188.974 245.304 188.127 245.797 187.337 246.362C187.27 246.409 187.192 246.433 187.115 246.433L187.113 246.431ZM204.713 245.823C204.645 245.823 204.576 245.805 204.513 245.767C203.688 245.26 202.81 244.829 201.903 244.484C201.705 244.409 201.606 244.189 201.681 243.991C201.756 243.795 201.978 243.695 202.173 243.77C203.125 244.132 204.047 244.584 204.913 245.116C205.092 245.226 205.148 245.462 205.039 245.641C204.966 245.758 204.841 245.823 204.713 245.823ZM194.334 243.596C194.145 243.596 193.98 243.455 193.956 243.263C193.93 243.053 194.078 242.862 194.286 242.836C195.293 242.708 196.329 242.673 197.337 242.734C197.548 242.747 197.707 242.927 197.695 243.138C197.682 243.349 197.504 243.511 197.292 243.496C196.332 243.439 195.344 243.471 194.384 243.594C194.367 243.596 194.351 243.597 194.335 243.597L194.334 243.596Z" fill="#FA9191"/>
<path d="M212.18 257.385C211.991 257.385 211.826 257.244 211.802 257.052C211.74 256.562 211.653 256.068 211.544 255.585C211.497 255.378 211.626 255.174 211.832 255.128C212.038 255.082 212.241 255.21 212.289 255.415C212.403 255.922 212.494 256.439 212.56 256.954C212.586 257.163 212.438 257.354 212.229 257.381C212.213 257.383 212.196 257.384 212.18 257.384V257.385Z" fill="#FA9191"/>
<path d="M208.231 270.064C208.14 270.064 208.049 270.031 207.976 269.966C207.82 269.825 207.807 269.584 207.948 269.428C208.279 269.061 208.595 268.672 208.889 268.273C209.014 268.104 209.253 268.067 209.423 268.193C209.592 268.318 209.629 268.557 209.503 268.727C209.194 269.145 208.862 269.552 208.516 269.938C208.441 270.021 208.336 270.064 208.232 270.064H208.231Z" fill="#FA9191"/>
<path d="M196.379 275.356C195.684 275.356 194.983 275.311 194.292 275.222C194.083 275.195 193.935 275.004 193.963 274.795C193.99 274.587 194.18 274.438 194.389 274.465C195.336 274.586 196.296 274.621 197.248 274.567C197.45 274.558 197.639 274.716 197.65 274.927C197.662 275.137 197.501 275.318 197.291 275.33C196.987 275.347 196.682 275.355 196.379 275.356ZM201.921 274.361C201.767 274.361 201.62 274.266 201.563 274.112C201.489 273.915 201.59 273.696 201.788 273.622C202.68 273.289 203.547 272.871 204.366 272.381C204.546 272.272 204.78 272.331 204.889 272.511C204.997 272.691 204.939 272.926 204.759 273.034C203.901 273.55 202.99 273.989 202.055 274.337C202.01 274.353 201.966 274.361 201.921 274.361ZM189.769 273.929C189.717 273.929 189.663 273.918 189.612 273.894C188.7 273.481 187.823 272.98 187.006 272.407C186.833 272.286 186.792 272.047 186.912 271.875C187.034 271.702 187.272 271.66 187.444 271.781C188.224 272.328 189.058 272.804 189.928 273.198C190.12 273.285 190.205 273.512 190.118 273.703C190.054 273.844 189.915 273.928 189.769 273.928V273.929ZM183.784 269.199C183.67 269.199 183.558 269.147 183.482 269.051C182.866 268.258 182.321 267.408 181.863 266.523C181.766 266.335 181.839 266.105 182.026 266.009C182.213 265.911 182.444 265.985 182.54 266.173C182.976 267.016 183.496 267.827 184.084 268.583C184.213 268.749 184.184 268.989 184.017 269.118C183.948 269.172 183.865 269.199 183.783 269.199H183.784Z" fill="#FA9191"/>
<path d="M180.673 262.217C180.492 262.217 180.331 262.087 180.298 261.903C180.207 261.393 180.14 260.872 180.098 260.353C180.082 260.144 180.238 259.959 180.447 259.942C180.655 259.925 180.841 260.081 180.859 260.291C180.899 260.785 180.963 261.283 181.049 261.769C181.086 261.976 180.948 262.175 180.739 262.212C180.717 262.216 180.694 262.217 180.672 262.217H180.673Z" fill="#FA9191"/>
<path d="M184.135 258.476C184.123 258.556 184.163 258.637 184.235 258.675L186.296 259.759C186.38 260.844 186.639 261.922 187.077 262.952L185.753 264.867C185.706 264.934 185.708 265.023 185.756 265.089L187.41 267.341C187.458 267.407 187.543 267.434 187.62 267.41L189.842 266.72C190.693 267.447 191.644 268.017 192.653 268.422L193.07 270.714C193.085 270.795 193.148 270.856 193.23 270.869L195.99 271.293C196.07 271.305 196.151 271.265 196.189 271.193L197.273 269.131C198.358 269.047 199.435 268.788 200.466 268.349L202.379 269.674C202.447 269.721 202.536 269.72 202.602 269.671L204.853 268.017C204.919 267.969 204.946 267.884 204.922 267.807L204.232 265.584C204.959 264.733 205.529 263.782 205.934 262.772L208.224 262.355C208.305 262.341 208.367 262.277 208.38 262.196L208.803 259.435C208.815 259.354 208.775 259.274 208.703 259.236L206.642 258.151C206.557 257.067 206.299 255.989 205.86 254.959L207.185 253.045C207.231 252.978 207.23 252.889 207.181 252.823L205.528 250.571C205.48 250.505 205.395 250.478 205.318 250.501L203.096 251.192C202.246 250.465 201.294 249.895 200.284 249.49L199.867 247.198C199.853 247.117 199.789 247.055 199.708 247.042L196.948 246.619C196.867 246.607 196.787 246.647 196.749 246.719L195.664 248.779C194.58 248.864 193.502 249.123 192.473 249.561L190.56 248.237C190.492 248.19 190.403 248.191 190.337 248.24L188.086 249.893C188.02 249.942 187.992 250.027 188.016 250.104L188.707 252.327C187.979 253.178 187.41 254.129 187.005 255.139L184.713 255.555C184.633 255.57 184.571 255.634 184.558 255.715L184.135 258.476Z" fill="#FA9191"/>
<path d="M196.466 262.006C195.781 262.006 195.092 261.778 194.525 261.308C193.228 260.236 193.043 258.308 194.114 257.009C195.187 255.712 197.114 255.527 198.412 256.599C199.04 257.118 199.43 257.852 199.507 258.663C199.584 259.475 199.341 260.268 198.822 260.897C198.22 261.627 197.346 262.005 196.467 262.005L196.466 262.006ZM195.253 260.425C195.646 260.749 196.144 260.901 196.649 260.853C197.156 260.805 197.614 260.562 197.939 260.169C198.263 259.776 198.415 259.279 198.366 258.772C198.317 258.265 198.074 257.807 197.681 257.483C196.87 256.813 195.666 256.928 194.996 257.739C194.326 258.55 194.441 259.755 195.252 260.425H195.253Z" fill="#FA9191"/>
<path d="M196.536 266.269C194.285 266.269 192.064 265.237 190.632 263.287C190.614 263.261 190.595 263.236 190.577 263.21C190.316 262.845 190.089 262.458 189.902 262.056C189.898 262.047 189.894 262.038 189.89 262.031C189.886 262.024 189.884 262.019 189.881 262.012L189.878 262.006C189.868 261.985 189.858 261.963 189.85 261.942L190.895 261.474C191.073 261.872 191.295 262.254 191.556 262.609C191.58 262.642 191.605 262.674 191.63 262.707C193.123 264.66 195.575 265.478 197.845 264.985C198.653 264.809 199.438 264.468 200.147 263.952C200.157 263.945 200.167 263.938 200.177 263.932C201.504 262.957 202.374 261.523 202.622 259.894C202.671 259.578 202.695 259.261 202.695 258.946C202.695 257.643 202.284 256.378 201.498 255.308C199.485 252.566 195.619 251.973 192.877 253.986C191.976 254.648 191.272 255.539 190.842 256.564L189.787 256.121C190.297 254.905 191.132 253.848 192.2 253.063C195.45 250.676 200.035 251.38 202.42 254.63C203.352 255.899 203.84 257.399 203.84 258.944C203.84 259.316 203.812 259.692 203.754 260.067C203.458 261.998 202.428 263.697 200.854 264.853C199.554 265.809 198.038 266.269 196.536 266.269Z" fill="#FBBDBD"/>
<path d="M87.6363 184.128C87.6363 184.128 88.4917 148.177 71.9361 138.556C55.3816 128.934 23.9041 122.918 22.7242 71.2956C22.0339 41.0736 21.286 27.8605 20.7845 22.0986C20.5891 19.8512 22.5864 18.037 24.8018 18.455C40.4803 21.4092 91.4148 33.5692 102.094 68.3424C114.754 109.566 87.6352 184.13 87.6352 184.13L87.6363 184.128Z" fill="#FBBDBD"/>
<path d="M36.9286 32.8168C54.1398 48.1699 74.0408 75.3409 84.648 102.513C86.0092 106.992 89.9928 116.514 91.722 133.434C93.2666 147.546 92.4992 162.458 90.6257 172.328C90.5074 172.952 89.906 173.361 89.2819 173.243C88.2094 173.04 88.3516 171.886 88.3614 171.922C90.5008 155.057 89.6129 134.066 84.7109 115.127C78.4489 91.8709 64.4811 69.3239 50.0335 50.2012L48.5464 48.3186C37.353 33.9405 34.9965 33.8352 36.0429 32.8331C36.2904 32.5964 36.6768 32.5942 36.9286 32.8179V32.8168Z" fill="#FEDADA"/>
<path d="M71.6258 138.917C70.0073 127.998 68.0882 114.121 59.1157 106.514C48.6594 97.6491 13.0788 103.246 1.43611 105.373C-0.0184182 105.639 -0.507964 107.477 0.624179 108.428C6.20674 113.118 18.1502 124.18 21.2622 135.33C24.1126 145.541 31.9812 153.583 41.3151 158.244C46.406 160.787 50.254 160.411 55.5044 161.31C61.8522 162.397 67.4391 166.177 73.9867 166.49C74.0768 157.197 72.9967 148.12 71.6258 138.918V138.917Z" fill="#FA9191"/>
<path d="M17.8105 111.581C32.6641 112.203 48.6085 118.98 56.6996 131.693L57.4638 132.906C59.2277 135.75 69.2237 155.97 74.7759 172.732C74.8454 172.94 74.7314 173.166 74.523 173.235C74.168 173.353 73.99 172.962 74.0248 172.997C70.1562 163.527 64.6007 151.522 60.1764 142.544C55.4318 132.748 52.1102 126.113 41.287 119.759C29.2405 112.914 17.7313 112.211 17.766 112.217C17.5902 112.199 17.4621 112.042 17.4805 111.867C17.4979 111.697 17.6444 111.572 17.8116 111.58L17.8105 111.581Z" fill="#FBBDBD"/>
<path d="M27.9944 186.411C27.9944 186.411 57.5104 264.272 66.8357 280.468C77.66 299.27 109.274 287.289 107.7 271.555C106.128 255.819 69.1912 190.782 69.1912 190.782L27.9944 186.412V186.411Z" fill="#8B0000"/>
<path d="M67.8756 129.694L251.327 66.0733L249.401 238.239L62.8618 196.609L67.8756 129.694Z" fill="url(#paint0_linear_41_1799)"/>
<path d="M251.5 241.133C261.454 241.133 269.523 201.52 269.523 152.656C269.523 103.791 261.454 64.1787 251.5 64.1787C241.546 64.1787 233.477 103.791 233.477 152.656C233.477 201.52 241.546 241.133 251.5 241.133Z" fill="url(#paint1_linear_41_1799)"/>
<path d="M252.868 235.083C251.238 233.426 247.69 227.034 244.647 210.503C241.707 194.527 240.087 173.807 240.087 152.157C240.087 130.508 241.707 109.787 244.647 93.8122C247.69 77.2811 251.238 70.8885 252.868 69.2317C254.497 70.8885 258.045 77.2811 261.088 93.8122C264.028 109.787 265.648 130.508 265.648 152.157C265.648 173.807 264.028 194.527 261.088 210.503C258.045 227.034 254.497 233.426 252.868 235.083Z" fill="url(#paint2_linear_41_1799)"/>
<mask id="mask0_41_1799" style="mask-type:luminance" maskUnits="userSpaceOnUse" x="240" y="69" width="48" height="167">
<path d="M252.868 235.083C251.238 233.426 247.69 227.034 244.647 210.503C241.707 194.527 240.087 173.807 240.087 152.157C240.087 130.508 241.707 109.787 244.647 93.8122C247.69 77.2811 251.238 70.8885 252.868 69.2317C254.497 70.8885 258.045 77.2811 261.088 93.8122C264.028 109.787 287.23 130.508 287.23 152.157C287.23 173.807 264.027 194.527 261.088 210.503C258.045 227.034 254.497 233.426 252.868 235.083Z" fill="white"/>
</mask>
<g mask="url(#mask0_41_1799)">
<path d="M275.97 151.497C275.97 166.53 267.873 178.717 251.848 178.717C235.824 178.717 222.833 166.53 222.833 151.497C222.833 136.465 235.824 124.277 251.848 124.277C267.873 124.277 275.97 136.465 275.97 151.497Z" fill="#5D0000"/>
</g>
<path d="M38.2878 125.993C46.9173 124.991 59.2927 124.629 72.6733 127.694C68.2652 150.726 68.9306 174.734 74.0291 199.592H36.2895C30.2727 199.592 25.1417 195.221 24.2039 189.276C22.3228 177.36 20.0237 157.333 22.4758 141.247C23.7067 133.175 30.1794 126.933 38.2889 125.991L38.2878 125.993Z" fill="#8B0000"/>
<path d="M60.9362 143.633H31.533C30.5355 143.633 29.6541 143.11 29.1775 142.233C28.701 141.356 28.7401 140.332 29.2818 139.494C29.5086 139.143 29.9765 139.044 30.3271 139.27C30.6777 139.497 30.7775 139.965 30.5507 140.317C30.314 140.681 30.2978 141.128 30.5051 141.511C30.7135 141.893 31.0977 142.121 31.5319 142.121H60.9351C61.5799 142.121 62.1042 141.597 62.1042 140.952V138.859C62.1042 138.214 61.5799 137.689 60.9351 137.689H31.3138C30.8958 137.689 30.5572 137.35 30.5572 136.932C30.5572 136.514 30.8958 136.176 31.3138 136.176H60.9351C62.4135 136.176 63.6162 137.379 63.6162 138.857V140.951C63.6162 142.429 62.4135 143.632 60.9351 143.632L60.9362 143.633Z" fill="#FA9191"/>
<path d="M58.3148 156.658H28.9117C27.9141 156.658 27.0327 156.134 26.5562 155.257C26.0797 154.38 26.1188 153.356 26.6604 152.518C26.8873 152.168 27.3562 152.068 27.7057 152.294C28.0563 152.521 28.1562 152.989 27.9293 153.341C27.6927 153.707 27.6764 154.152 27.8837 154.535C28.0921 154.917 28.4764 155.145 28.9106 155.145H58.3138C58.9585 155.145 59.4828 154.621 59.4828 153.976V151.884C59.4828 151.239 58.9585 150.715 58.3138 150.715H28.6924C28.2745 150.715 27.9358 150.376 27.9358 149.958C27.9358 149.54 28.2745 149.201 28.6924 149.201H58.3138C59.7922 149.201 60.9949 150.404 60.9949 151.884V153.976C60.9949 155.455 59.7922 156.658 58.3138 156.658H58.3148Z" fill="#FA9191"/>
<path opacity="0.69" d="M94.5325 125.034C94.2123 125.034 93.9148 124.829 93.8128 124.508C93.6858 124.109 93.9062 123.685 94.3034 123.558L233.248 79.3331C233.645 79.2061 234.071 79.4265 234.198 79.825C234.325 80.2234 234.104 80.6479 233.707 80.775L94.7626 124.999C94.6866 125.023 94.6095 125.035 94.5325 125.035V125.034Z" fill="white"/>
<path opacity="0.69" d="M75.7431 132.717C75.4446 132.717 75.1624 132.54 75.043 132.247C74.8845 131.86 75.0701 131.418 75.4565 131.261L82.6076 128.337C82.994 128.177 83.4358 128.364 83.5932 128.751C83.7517 129.137 83.5661 129.579 83.1796 129.736L76.0286 132.66C75.9352 132.698 75.8386 132.717 75.7431 132.717Z" fill="white"/>
<path d="M60.9361 171.912H31.5329C30.5354 171.912 29.655 171.389 29.1774 170.511C28.7009 169.634 28.7389 168.61 29.2816 167.772C29.5085 167.421 29.9763 167.323 30.3269 167.547C30.6776 167.774 30.7774 168.242 30.5506 168.593C30.3139 168.959 30.2966 169.405 30.505 169.788C30.7134 170.171 31.0965 170.399 31.5318 170.399H60.935C61.5798 170.399 62.104 169.874 62.104 169.229V167.137C62.104 166.492 61.5798 165.968 60.935 165.968H31.3136C30.8957 165.968 30.5571 165.629 30.5571 165.211C30.5571 164.793 30.8957 164.454 31.3136 164.454H60.935C62.4134 164.454 63.6161 165.657 63.6161 167.136V169.228C63.6161 170.707 62.4134 171.911 60.935 171.911L60.9361 171.912Z" fill="#FA9191"/>
<path d="M63.69 188.845H34.2868C33.2893 188.845 32.4089 188.321 31.9313 187.444C31.4548 186.567 31.4928 185.543 32.0355 184.705C32.2624 184.354 32.7313 184.255 33.0809 184.48C33.4315 184.707 33.5313 185.175 33.3045 185.526C33.0678 185.892 33.0505 186.338 33.2589 186.721C33.4673 187.103 33.8504 187.331 34.2857 187.331H63.6889C64.3337 187.331 64.8579 186.807 64.8579 186.162V184.069C64.8579 183.424 64.3337 182.899 63.6889 182.899H34.0675C33.6496 182.899 33.311 182.561 33.311 182.143C33.311 181.725 33.6496 181.386 34.0675 181.386H63.6889C65.1673 181.386 66.37 182.589 66.37 184.068V186.161C66.37 187.64 65.1673 188.843 63.6889 188.843L63.69 188.845Z" fill="#FA9191"/>
<path d="M89.9508 280.902C88.5961 280.902 87.2262 280.756 85.8607 280.458C79.883 279.156 75.0158 275.213 72.5084 269.641L49.0167 217.44C48.8451 217.059 49.0145 216.612 49.3955 216.44C49.7765 216.269 50.2237 216.44 50.3952 216.82L73.8869 269.022C76.1957 274.152 80.6776 277.782 86.182 278.981C91.592 280.161 97.0671 278.76 101.204 275.14C101.425 274.945 101.649 274.746 101.872 274.542C102.181 274.261 102.658 274.282 102.941 274.59C103.222 274.899 103.201 275.377 102.893 275.658C102.661 275.87 102.43 276.076 102.2 276.277C98.7452 279.301 94.4316 280.902 89.9518 280.902H89.9508Z" fill="#FA9191"/>
<path d="M46.2324 210.168C45.9436 210.168 45.669 210.002 45.542 209.723L42.9217 203.899C42.7502 203.518 42.9195 203.071 43.3005 202.899C43.6815 202.728 44.1287 202.899 44.3002 203.278L46.9205 209.101C47.0921 209.482 46.9227 209.929 46.5417 210.101C46.4408 210.147 46.3355 210.167 46.2324 210.167V210.168Z" fill="#FA9191"/>
<path d="M271.673 150.715C271.281 150.715 270.948 150.411 270.92 150.012C270.398 142.645 267.845 137.154 263.334 133.689C255.531 127.698 244.399 129.757 244.287 129.779C243.875 129.857 243.481 129.59 243.401 129.179C243.322 128.769 243.59 128.373 244 128.293C244.482 128.2 255.918 126.088 264.254 132.489C269.124 136.228 271.874 142.087 272.428 149.903C272.457 150.32 272.143 150.682 271.727 150.711C271.708 150.712 271.691 150.713 271.672 150.713L271.673 150.715Z" fill="#FA9191"/>
<path d="M311.59 200.855L289.059 198.042L291.98 186.573L267.074 178.954L303.636 180.746L298.799 192.587L311.59 200.855Z" fill="url(#paint3_linear_41_1799)"/>
<path d="M295.232 267.178L280.053 256.359L286.634 249.215L271.614 233.999L297.324 249.55L289.215 256.217L295.232 267.178Z" fill="url(#paint4_linear_41_1799)"/>
<path d="M318 61.9682L300.152 90.0676L291.443 82.8585L274.69 101.261L291.173 70.4107L299.42 79.4254L318 61.9682Z" fill="url(#paint5_linear_41_1799)"/>
</g>
<defs>
<linearGradient id="paint0_linear_41_1799" x1="-126.309" y1="343.814" x2="162.209" y2="182.037" gradientUnits="userSpaceOnUse">
<stop stop-color="#E1473D"/>
<stop offset="1" stop-color="#E9605A"/>
</linearGradient>
<linearGradient id="paint1_linear_41_1799" x1="509.288" y1="61.383" x2="379.907" y2="107.171" gradientUnits="userSpaceOnUse">
<stop stop-color="#FEBBBA"/>
<stop offset="1" stop-color="#FF928E"/>
</linearGradient>
<linearGradient id="paint2_linear_41_1799" x1="258.984" y1="152.091" x2="402.465" y2="150.565" gradientUnits="userSpaceOnUse">
<stop stop-color="#E1473D"/>
<stop offset="1" stop-color="#E9605A"/>
</linearGradient>
<linearGradient id="paint3_linear_41_1799" x1="305.802" y1="194.488" x2="205.385" y2="140.506" gradientUnits="userSpaceOnUse">
<stop stop-color="#E1473D"/>
<stop offset="1" stop-color="#E9605A"/>
</linearGradient>
<linearGradient id="paint4_linear_41_1799" x1="283.732" y1="245.411" x2="220.983" y2="150.209" gradientUnits="userSpaceOnUse">
<stop stop-color="#E1473D"/>
<stop offset="1" stop-color="#E9605A"/>
</linearGradient>
<linearGradient id="paint5_linear_41_1799" x1="292.566" y1="82.5577" x2="179.875" y2="165.692" gradientUnits="userSpaceOnUse">
<stop stop-color="#E1473D"/>
<stop offset="1" stop-color="#E9605A"/>
</linearGradient>
<clipPath id="clip0_41_1799">
<rect width="318" height="304" fill="white"/>
</clipPath>
</defs>
</svg>
