<svg width="234" height="237" viewBox="0 0 234 237" fill="none" xmlns="http://www.w3.org/2000/svg">
<path d="M210.147 19.3457C207.422 17.0985 203.289 15.8745 199.795 15.6274C175.029 13.8778 171.415 65.4854 175.211 77.0188C179.007 88.5523 176.547 92.3392 157.042 98.3734C137.537 104.408 146.894 116.026 149.271 122.82C151.649 129.614 156.357 135.354 142.138 142.105C127.918 148.856 132.86 153.039 132.86 153.039C132.86 153.039 159.082 179.779 157.634 171.218C156.185 162.657 158.81 149.73 182.32 148.748C192.447 148.325 207.954 143.509 211.387 132.699C212.187 130.182 212.743 126.338 212.136 123.732C211.292 120.118 208.912 117.271 207.591 113.869C204.513 105.942 212.235 100.137 216.679 94.8387C218.999 92.0726 221.318 89.2362 223.094 86.0824C226.783 79.5344 225.402 72.5124 221.385 66.4766C219.459 63.5826 216.782 60.5118 215.942 57.0592C215.039 53.351 215.826 48.2843 216.04 44.4694C216.208 41.4773 216.495 38.497 216.326 35.4973C216.012 29.9176 214.701 23.1013 210.146 19.3449L210.147 19.3457Z" fill="#8D90E3"/>
<mask id="mask0_79_3421" style="mask-type:luminance" maskUnits="userSpaceOnUse" x="132" y="15" width="94" height="158">
<path d="M210.147 19.3457C207.422 17.0985 203.289 15.8745 199.795 15.6274C175.029 13.8778 171.415 65.4854 175.211 77.0188C179.007 88.5523 176.547 92.3392 157.042 98.3734C137.537 104.408 146.894 116.026 149.271 122.82C151.649 129.614 156.357 135.354 142.138 142.105C127.918 148.856 132.86 153.039 132.86 153.039C132.86 153.039 159.082 179.779 157.634 171.218C156.185 162.657 158.81 149.73 182.32 148.748C192.447 148.325 207.954 143.509 211.387 132.699C212.187 130.182 212.743 126.338 212.136 123.732C211.292 120.118 208.912 117.271 207.591 113.869C204.513 105.942 212.235 100.137 216.679 94.8387C218.999 92.0726 221.318 89.2362 223.094 86.0824C226.783 79.5344 225.402 72.5124 221.385 66.4766C219.459 63.5826 216.782 60.5118 215.942 57.0592C215.039 53.351 215.826 48.2843 216.04 44.4694C216.208 41.4773 216.495 38.497 216.326 35.4973C216.012 29.9176 214.701 23.1013 210.146 19.3449L210.147 19.3457Z" fill="white"/>
</mask>
<g mask="url(#mask0_79_3421)">
<g style="mix-blend-mode:soft-light" opacity="0.8">
<path d="M130.798 168.047C130.628 168.108 130.435 168.036 130.349 167.873C130.256 167.694 130.325 167.473 130.504 167.38C130.614 167.323 141.654 161.534 153.968 152C165.316 143.215 180.099 129.363 186.084 113.26C191.083 99.8106 195.642 77.5766 198.592 52.2599C201.238 29.5579 201.656 12.7681 200.531 9.65157C200.463 9.46197 200.562 9.2529 200.752 9.18434C200.942 9.11578 201.152 9.21482 201.221 9.40442C202.536 13.0508 201.701 31.9118 199.321 52.3446C196.364 77.7171 191.79 100.012 186.772 113.513C180.725 129.782 165.835 143.74 154.408 152.585C142.042 162.156 130.955 167.969 130.844 168.027C130.829 168.034 130.814 168.041 130.798 168.047H130.798Z" fill="white"/>
<path d="M198.552 56.6605C198.363 56.7282 198.17 56.6758 198.101 56.487C198.009 56.2373 188.776 31.475 176.871 25.8844C176.687 25.7989 176.614 25.5924 176.699 25.4095C176.786 25.2267 177.006 25.1548 177.188 25.2402C189.366 30.9587 198.407 55.2013 198.787 56.2331C198.856 56.4227 198.744 56.592 198.554 56.6597C198.554 56.6597 198.552 56.6597 198.551 56.6597L198.552 56.6605Z" fill="white"/>
<path d="M194.051 85.3773C193.91 85.4281 193.745 85.3883 193.644 85.2656C193.516 85.1098 193.538 84.8796 193.694 84.7518C193.762 84.6959 200.56 79.1374 208.947 74.4728C220.279 68.1703 228.964 66.4105 234.76 69.2435C234.941 69.3324 235.016 69.5508 234.927 69.7319C234.838 69.9131 234.619 69.9875 234.437 69.8987C221.102 63.3812 194.427 85.0946 194.159 85.3147C194.126 85.3426 194.089 85.3629 194.051 85.3765V85.3773Z" fill="white"/>
<path d="M164.456 144.075C164.419 144.088 164.38 144.095 164.338 144.096C164.136 144.099 163.969 143.938 163.966 143.736C163.964 143.63 163.776 133.006 161.545 121.811C159.5 111.547 155.277 98.6908 146.773 95.7283C146.582 95.6614 146.481 95.4532 146.548 95.2636C146.614 95.0732 146.824 94.9724 147.014 95.0393C154.105 97.5092 159.236 106.472 162.265 121.679C164.508 132.937 164.696 143.618 164.698 143.725C164.7 143.885 164.599 144.023 164.456 144.075Z" fill="white"/>
<path d="M179.589 126.91C179.44 126.963 179.269 126.916 179.17 126.783C179.049 126.62 179.084 126.392 179.246 126.272C180.426 125.403 208.244 105.015 219.093 106.962C219.292 106.998 219.424 107.188 219.388 107.386C219.353 107.585 219.162 107.717 218.963 107.681C208.422 105.789 179.968 126.648 179.682 126.859C179.652 126.881 179.621 126.897 179.588 126.909L179.589 126.91Z" fill="white"/>
</g>
</g>
<path d="M231.884 95.3575C230.083 92.3239 226.609 89.7779 223.405 88.3669C200.693 78.3663 179.775 125.71 179.432 137.844C179.089 149.978 175.489 152.712 155.087 151.81C134.685 150.909 139.546 164.998 139.477 172.194C139.409 179.389 141.89 186.378 126.219 187.935C110.547 189.491 113.776 195.094 113.776 195.094C113.776 195.094 129.376 229.102 130.919 220.557C132.462 212.012 139.319 200.734 161.775 207.74C171.448 210.758 187.675 211.458 194.576 202.444C196.183 200.345 198.011 196.915 198.323 194.258C198.755 190.573 197.483 187.091 197.394 183.444C197.187 174.946 206.425 172.088 212.405 168.602C215.527 166.782 218.672 164.894 221.414 162.526C227.108 157.609 228.192 150.535 226.461 143.501C225.63 140.128 224.154 136.335 224.535 132.803C224.944 129.009 227.405 124.506 228.901 120.988C230.074 118.23 231.356 115.521 232.215 112.642C233.814 107.285 234.894 100.429 231.883 95.3575H231.884Z" fill="#85A0FF"/>
<mask id="mask1_79_3421" style="mask-type:luminance" maskUnits="userSpaceOnUse" x="113" y="86" width="121" height="136">
<path d="M231.884 95.3575C230.083 92.3239 226.609 89.7779 223.405 88.3669C200.693 78.3663 179.775 125.71 179.432 137.844C179.089 149.978 175.489 152.712 155.087 151.81C134.685 150.909 139.546 164.998 139.477 172.194C139.409 179.389 141.89 186.378 126.219 187.935C110.547 189.491 113.776 195.094 113.776 195.094C113.776 195.094 129.376 229.102 130.919 220.557C132.462 212.012 139.319 200.734 161.775 207.74C171.448 210.758 187.675 211.458 194.576 202.444C196.183 200.345 198.011 196.915 198.323 194.258C198.755 190.573 197.483 187.091 197.394 183.444C197.187 174.946 206.425 172.088 212.405 168.602C215.527 166.782 218.672 164.894 221.414 162.526C227.108 157.609 228.192 150.535 226.461 143.501C225.63 140.128 224.154 136.335 224.535 132.803C224.944 129.009 227.405 124.506 228.901 120.988C230.074 118.23 231.356 115.521 232.215 112.642C233.814 107.285 234.894 100.429 231.883 95.3575H231.884Z" fill="white"/>
</mask>
<g mask="url(#mask1_79_3421)">
<g style="mix-blend-mode:soft-light" opacity="0.8">
<path d="M106.742 208.52C106.562 208.52 106.405 208.387 106.379 208.204C106.352 208.004 106.492 207.82 106.693 207.793C106.816 207.776 119.169 206.053 133.993 201.235C147.653 196.796 166.266 188.747 177.364 175.613C186.633 164.644 198.47 145.26 209.839 122.431C220.033 101.961 226.125 86.3024 226.125 82.9904C226.125 82.7889 226.289 82.6255 226.491 82.6255C226.693 82.6255 226.857 82.7889 226.857 82.9904C226.857 86.8653 219.67 104.332 210.494 122.756C199.1 145.635 187.228 165.072 177.924 176.084C166.712 189.353 147.962 197.465 134.207 201.933C119.322 206.769 106.915 208.499 106.791 208.516C106.774 208.518 106.757 208.519 106.741 208.519L106.742 208.52Z" fill="white"/>
<path d="M208.307 126.635C208.106 126.635 207.942 126.482 207.941 126.282C207.939 126.016 207.657 99.5812 198.351 90.3043C198.208 90.1621 198.208 89.9328 198.351 89.7906C198.494 89.6484 198.725 89.6492 198.869 89.7914C208.388 99.2807 208.666 125.178 208.674 126.277C208.676 126.478 208.513 126.635 208.31 126.635H208.307Z" fill="white"/>
<path d="M194.324 152.064C194.174 152.064 194.033 151.971 193.979 151.822C193.911 151.632 194.01 151.423 194.201 151.355C194.283 151.325 202.567 148.387 212.043 146.827C224.846 144.719 233.616 145.993 238.109 150.614C238.25 150.759 238.246 150.99 238.1 151.13C237.955 151.271 237.723 151.267 237.583 151.122C227.246 140.491 194.775 151.925 194.448 152.042C194.407 152.056 194.366 152.063 194.325 152.063L194.324 152.064Z" fill="white"/>
<path d="M146.552 197.316C146.513 197.316 146.473 197.309 146.433 197.296C146.242 197.231 146.139 197.024 146.205 196.832C146.239 196.732 149.669 186.671 151.369 175.384C152.928 165.036 153.318 151.513 146.321 145.856C146.164 145.729 146.14 145.499 146.267 145.343C146.395 145.186 146.626 145.161 146.783 145.289C152.617 150.005 154.404 160.171 152.092 175.502C150.381 186.852 146.933 196.967 146.898 197.069C146.846 197.22 146.704 197.316 146.552 197.316Z" fill="white"/>
<path d="M166.617 186.268C166.46 186.268 166.314 186.166 166.267 186.008C166.208 185.815 166.319 185.611 166.512 185.554C167.917 185.134 201.014 175.332 210.562 180.824C210.737 180.925 210.797 181.148 210.696 181.322C210.595 181.497 210.371 181.557 210.196 181.456C200.919 176.12 167.063 186.151 166.723 186.253C166.688 186.263 166.652 186.268 166.617 186.268Z" fill="white"/>
</g>
</g>
<path d="M155.75 10.0689L155.489 11.9361C154.62 11.9759 153.766 12.0876 152.935 12.2738L152.227 10.5319C152.034 10.057 151.488 9.83103 151.008 10.0282L148.005 11.2615C147.525 11.4587 147.29 12.0055 147.482 12.4812L148.194 14.2452C147.466 14.7073 146.778 15.2304 146.138 15.8094L144.629 14.643C144.221 14.3281 143.63 14.406 143.308 14.8173L141.291 17.3905C140.968 17.8027 141.036 18.3935 141.444 18.7092L142.958 19.8824C142.554 20.6374 142.216 21.4347 141.942 22.2668L140.021 22.0154C139.505 21.9477 139.024 22.3125 138.948 22.8305L138.465 26.0757C138.387 26.5954 138.744 27.0728 139.261 27.1405L141.188 27.3927C141.211 28.2688 141.307 29.1304 141.478 29.9693L139.669 30.7209C139.182 30.9232 138.943 31.4827 139.134 31.9694L140.339 35.0216C140.532 35.5108 141.085 35.7419 141.574 35.5379L143.383 34.7829C143.838 35.521 144.357 36.2167 144.933 36.8634L143.727 38.4242C143.401 38.8466 143.471 39.4509 143.883 39.7743L146.468 41.7956C146.881 42.1189 147.481 42.0376 147.807 41.6136L148.998 40.0629C149.759 40.4667 150.564 40.8027 151.403 41.071L151.132 43.0059C151.059 43.5358 151.421 44.0208 151.942 44.0885L155.205 44.5151C155.728 44.5837 156.209 44.2087 156.282 43.6789L156.545 41.7583C157.432 41.7202 158.304 41.606 159.153 41.4155L159.868 43.1896C160.067 43.6822 160.623 43.915 161.111 43.7093L164.154 42.4236C164.639 42.2179 164.872 41.6534 164.672 41.1624L163.957 39.401C164.7 38.9228 165.399 38.3802 166.048 37.7801L167.535 38.9329C167.951 39.2554 168.547 39.1742 168.867 38.7518L170.859 36.1177C171.178 35.697 171.099 35.0969 170.684 34.7761L169.21 33.6368C169.611 32.8607 169.945 32.0405 170.21 31.1864L172.052 31.4277C172.569 31.4954 173.043 31.1272 173.11 30.6058L173.529 27.3521C173.596 26.8332 173.232 26.3575 172.715 26.2898L170.878 26.0494C170.84 25.1624 170.728 24.2923 170.539 23.4467L172.243 22.7357C172.722 22.5359 172.949 21.984 172.75 21.5033L171.506 18.5035C171.307 18.0245 170.758 17.7976 170.28 17.9965L168.565 18.7092C168.098 17.9787 167.57 17.2898 166.983 16.6524L168.116 15.1788C168.431 14.7682 168.354 14.1817 167.945 13.8676L165.385 11.9065C164.975 11.5933 164.389 11.6703 164.073 12.0791L162.933 13.5545C162.178 13.1634 161.38 12.8384 160.547 12.5811L160.801 10.7282C160.87 10.2187 160.513 9.75062 160.001 9.68375L156.802 9.26561C156.291 9.19875 155.818 9.55763 155.747 10.0672L155.75 10.0689ZM144.474 25.1937C145.399 18.7812 151.302 14.2858 157.666 15.1178C164.03 15.9499 168.499 21.8021 167.644 28.2231C166.784 34.6839 160.868 39.2673 154.434 38.4268C148.001 37.5854 143.544 31.6452 144.474 25.1937Z" fill="#D8DEE8"/>
<path d="M106.707 9.05654L106.303 11.9437C104.961 12.0046 103.64 12.1773 102.354 12.4651L101.26 9.77177C100.961 9.03707 100.118 8.68834 99.3765 8.99306L94.733 10.9001C93.9901 11.2056 93.6276 12.0495 93.9247 12.7867L95.0251 15.5139C93.9001 16.2283 92.8362 17.0367 91.8471 17.933L89.5122 16.1293C88.883 15.6426 87.9686 15.7636 87.4711 16.3985L84.3516 20.3767C83.8515 21.014 83.9577 21.9273 84.5877 22.4157L86.9285 24.2305C86.3053 25.3977 85.7806 26.6309 85.3578 27.9167L82.3869 27.5281C81.5896 27.424 80.8467 27.9878 80.727 28.7885L79.9807 33.807C79.861 34.6111 80.4128 35.3483 81.2127 35.4524L84.192 35.8418C84.2277 37.1961 84.3754 38.5292 84.6403 39.8259L81.8444 40.9881C81.0904 41.3012 80.7202 42.1654 81.0174 42.9188L82.8802 47.6376C83.1782 48.3935 84.0332 48.7515 84.7889 48.4358L87.5865 47.2686C88.2895 48.4095 89.0919 49.4854 89.9826 50.485L88.1189 52.8982C87.6145 53.5516 87.7224 54.486 88.3609 54.9854L92.3574 58.1105C92.9967 58.6107 93.9247 58.4846 94.4282 57.8294L96.2698 55.4324C97.4458 56.057 98.6913 56.5767 99.9896 56.9915L99.5701 59.9836C99.4555 60.8029 100.016 61.5529 100.823 61.6578L105.868 62.3172C106.675 62.423 107.42 61.8432 107.533 61.0239L107.94 58.0546C109.312 57.9962 110.661 57.8193 111.971 57.5247L113.078 60.268C113.385 61.0298 114.245 61.3895 114.998 61.0713L119.704 59.0838C120.455 58.7664 120.814 57.8929 120.505 57.1328L119.398 54.409C120.547 53.6701 121.629 52.8304 122.632 51.9027L124.931 53.6853C125.574 54.1839 126.495 54.0578 126.99 53.406L130.071 49.3338C130.562 48.6838 130.441 47.7553 129.799 47.2592L127.52 45.4987C128.142 44.2976 128.657 43.0296 129.066 41.7101L131.916 42.0825C132.716 42.1874 133.448 41.6178 133.552 40.812L134.199 35.7808C134.302 34.9776 133.739 34.2429 132.941 34.1388L130.101 33.7672C130.042 32.396 129.869 31.0501 129.577 29.7433L132.212 28.6437C132.953 28.3348 133.304 27.4816 132.995 26.7384L131.07 22.1C130.763 21.3594 129.915 21.009 129.175 21.3162L126.525 22.4174C125.803 21.2874 124.986 20.2226 124.08 19.2382L125.831 16.9596C126.318 16.3257 126.199 15.4183 125.565 14.9324L121.607 11.9005C120.974 11.4164 120.066 11.5357 119.578 12.168L117.816 14.4491C116.647 13.8448 115.414 13.342 114.126 12.9433L114.519 10.0782C114.627 9.29015 114.074 8.5673 113.283 8.46404L108.337 7.81737C107.547 7.7141 106.816 8.26851 106.706 9.05654H106.707ZM89.2719 32.4425C90.7009 22.5274 99.8291 15.5766 109.668 16.8631C119.507 18.1497 126.417 27.198 125.096 37.1266C123.767 47.1153 114.62 54.2033 104.673 52.9024C94.7262 51.6014 87.8344 42.4168 89.2719 32.4425Z" fill="#D8DEE8"/>
<path d="M101.975 37.0141L80.3449 216.249C80.0205 218.936 81.8783 221.345 84.4815 221.602L174.577 231.463C180.095 231.805 183.117 228.994 183.459 226.137L206.168 35.5802C206.507 32.7388 203.799 30.1648 198.257 30.1648L107.342 32.0735C104.71 32.1175 102.3 34.3402 101.977 37.0132L101.975 37.0141Z" fill="url(#paint0_linear_79_3421)"/>
<path d="M97.9204 36.7064L76.1709 216.837C75.8449 219.538 77.7094 221.96 80.3211 222.219L173.724 231.49C176.653 231.78 179.336 229.668 179.679 226.797L202.516 35.2557C202.856 32.399 200.705 30.1034 197.745 30.1534L103.306 31.7421C100.665 31.7862 98.2439 34.0207 97.9195 36.7073L97.9204 36.7064Z" fill="url(#paint1_linear_79_3421)"/>
<path d="M99.6924 46.6414L79.5332 213.659C79.2284 216.182 80.9749 218.44 83.4193 218.677L171.262 227.19C173.984 227.454 176.479 225.482 176.798 222.809L197.903 45.8694C198.22 43.2099 196.223 41.0575 193.473 41.0871L104.729 42.0292C102.258 42.0554 99.9946 44.1308 99.6915 46.6422L99.6924 46.6414Z" fill="#D8DEE8"/>
<path d="M146.798 36.5815C146.683 37.5405 147.373 38.3082 148.341 38.2955C149.31 38.2837 150.189 37.4948 150.305 36.5341C150.42 35.5734 149.727 34.8057 148.758 34.8201C147.791 34.8345 146.913 35.6225 146.799 36.5815H146.798Z" fill="#FFC444"/>
<g style="mix-blend-mode:soft-light">
<path d="M114.879 158.754C132.862 125.609 159.727 115.687 167.816 81.5269C172.187 63.0621 169.209 45.3886 164.192 30.7166L197.746 30.1521C200.706 30.1021 202.857 32.3985 202.517 35.2543L179.679 226.795C179.337 229.668 176.653 231.78 173.725 231.489L100.301 224.201C99.7586 194.501 106.864 173.529 114.88 158.753L114.879 158.754Z" fill="white"/>
</g>
<path d="M9.24231 55.7142C9.24231 38.1018 24.6535 23.8267 43.1477 23.8284C61.0951 23.8301 75.259 37.3544 75.259 54.0349C75.259 70.7155 61.0951 84.96 43.1477 85.875C24.6535 86.818 9.24231 73.3259 9.24231 55.7142Z" fill="#191B44"/>
<path d="M11.2358 54.31C11.2358 36.6975 26.2013 22.4225 44.1597 22.4242C61.5875 22.4259 75.3422 35.9501 75.3422 52.6307C75.3422 69.3113 61.5875 83.5558 44.1597 84.4708C26.2005 85.4137 11.2358 71.9216 11.2358 54.31Z" fill="url(#paint2_linear_79_3421)"/>
<g style="mix-blend-mode:soft-light" opacity="0.5">
<path d="M16.36 54.1754C16.36 39.3782 28.9328 27.3843 44.0214 27.3868C58.6634 27.3885 70.2199 38.751 70.2199 52.7653C70.2199 66.7796 58.6642 78.7472 44.0214 79.5158C28.9328 80.3081 16.36 68.9727 16.36 54.1763V54.1754Z" fill="white"/>
</g>
<g style="mix-blend-mode:soft-light" opacity="0.5">
<path d="M42.9821 29.6603C57.6241 29.662 69.1806 41.0245 69.1806 55.0388C69.1806 58.3712 68.5209 61.5851 67.328 64.5628C69.1755 60.9773 70.2198 56.9644 70.2198 52.7653C70.2198 38.751 58.6642 27.3885 44.0213 27.3868C32.3842 27.386 22.2498 34.5231 18.2194 44.5752C22.7839 35.7377 32.2432 29.6603 42.9821 29.6612V29.6603Z" fill="white"/>
</g>
<path d="M31.5105 50.5536V63.4684C31.5105 67.202 34.6613 70.1475 38.5364 70.0468L48.1452 69.7971C51.9736 69.6972 55.0676 66.6222 55.0676 62.9275V50.149L31.5105 50.5544V50.5536ZM40.3602 63.9051L42.1458 58.5108C41.3808 58.1172 40.8629 57.3419 40.8629 56.4388C40.8629 55.1133 41.9785 54.0171 43.3523 53.9917C44.7244 53.9655 45.8358 55.0168 45.8358 56.3397C45.8358 57.2412 45.3196 58.036 44.5571 58.4609L46.3359 63.7663L40.3602 63.9051Z" fill="white"/>
<path d="M52.337 49.0291C51.3172 49.0461 50.4903 48.2597 50.4903 47.272C50.4903 43.4757 47.2936 40.4286 43.3514 40.4794C39.3956 40.5302 36.1667 43.6797 36.1667 47.4996C36.1667 48.4934 35.3287 49.3127 34.2937 49.3305C33.2578 49.3474 32.4172 48.5551 32.4172 47.5597C32.4172 41.7456 37.3358 36.9599 43.3522 36.893C49.3364 36.8262 54.1803 41.4561 54.1803 47.2144C54.1803 48.1996 53.3558 49.0131 52.337 49.03V49.0291Z" fill="white"/>
<path d="M74.5917 122.691C74.5917 122.691 73.9379 120.248 74.4015 119.624C74.8651 118.999 77.6958 116.502 77.4241 117.316C77.1516 118.131 76.7432 118.673 76.7432 118.673C76.7432 118.673 78.2681 119.379 77.2874 120.437C76.3076 121.496 75.9799 121.74 75.9255 122.69C75.8712 123.64 75.2454 123.966 74.5917 122.69V122.691Z" fill="url(#paint3_linear_79_3421)"/>
<path d="M47.3912 228.137C47.3912 228.137 47.0448 230.249 47.089 231.001C47.1331 231.753 55.5031 232.137 55.5872 231.574C55.6721 231.01 54.2041 230.115 53.1708 229.799C52.1375 229.483 49.1131 228.64 49.1131 228.64L47.3912 228.137Z" fill="#8085F9"/>
<path d="M49.423 226.031L49.1564 228.658C49.1564 228.658 48.1843 229.299 47.3276 228.805L46.8988 225.945L49.423 226.032V226.031Z" fill="#4844FF"/>
<path d="M32.458 231.561C32.458 231.561 32.1116 233.674 32.1557 234.426C32.1999 235.177 40.5699 235.562 40.654 234.999C40.7389 234.436 39.2708 233.54 38.2375 233.224C37.2042 232.908 34.1799 232.064 34.1799 232.064L32.458 231.561Z" fill="#8085F9"/>
<path d="M34.4898 229.456L34.2232 232.083C34.2232 232.083 33.251 232.724 32.3943 232.229L31.9656 229.37L34.4898 229.456V229.456Z" fill="url(#paint4_linear_79_3421)"/>
<path d="M47.904 157.448C48.8711 159.403 49.839 161.359 50.8061 163.314C51.5839 174.472 51.971 186.607 51.7223 199.583C51.5372 209.238 51.0201 218.383 50.2763 226.968C48.9645 226.908 47.6527 226.848 46.3409 226.788C44.4441 223.035 42.2052 217.349 41.9989 210.33C41.784 203.01 44.0103 202.037 43.8693 195.028C43.6859 185.942 39.8643 183.519 37.8283 172.59C37.0497 168.41 36.5258 162.952 37.1482 156.329C40.7329 156.702 44.3176 157.075 47.9023 157.447L47.904 157.448Z" fill="#1A1944"/>
<path style="mix-blend-mode:multiply" opacity="0.3" d="M37.1499 156.329C39.0858 156.531 41.0216 156.732 42.9583 156.934C46.4437 162.98 47.4167 169.272 46.8045 172.056C45.9393 175.994 43.6503 177.255 43.7768 181.209C43.9016 185.121 46.2136 186.136 47.6799 190.747C48.6954 193.939 48.4271 196.875 47.8497 202.615C46.6865 214.178 43.8855 217.715 46.2314 221.506C46.8979 222.583 48.0993 223.866 50.4529 224.845C50.3952 225.554 50.3383 226.265 50.278 226.967C48.9662 226.908 47.6544 226.847 46.3426 226.787C44.4458 223.034 42.2069 217.348 42.0006 210.33C41.7858 203.009 44.012 202.036 43.871 195.027C43.6876 185.941 39.866 183.518 37.83 172.59C37.0514 168.41 36.5275 162.952 37.1499 156.329Z" fill="#191B44"/>
<path d="M42.6994 160.968C40.8833 170.841 39.2794 181.407 38.0279 192.613C36.5166 206.143 35.71 218.899 35.3933 230.741C33.9533 230.782 32.5141 230.822 31.0741 230.863C25.4007 219.674 25.0543 212.088 25.872 207.15C26.187 205.247 27.0437 201.515 27.2389 195.937C27.3748 192.049 27.126 189.09 26.8153 185.533C26.1343 177.735 25.3073 176.033 25.1885 170.068C25.0764 164.47 25.0535 161.638 26.6565 159.985C30.8797 155.629 41.8665 160.583 42.6994 160.968Z" fill="#191B44"/>
<path d="M73.8386 122.315C74.7963 122.248 75.7532 122.182 76.7109 122.115C78.9694 131.215 77.3494 140.041 72.2517 143.287C64.2867 148.359 49.4834 138.804 46.2757 128.399C44.8679 123.831 45.188 117.241 48.0026 115.96C48.7838 115.605 49.9962 115.55 52.6224 117.019C60.4651 121.409 60.6714 129.706 64.6586 130.408C66.4314 130.72 69.2936 129.594 73.8403 122.314L73.8386 122.315Z" fill="#808CF9"/>
<path d="M51.909 165.316C53.2888 163.034 51.5558 160.833 51.1619 156.51C50.7153 151.61 52.6087 150.794 54.4808 142.675C55.7264 137.274 56.921 132.09 55.4946 126.021C54.8111 123.113 53.6513 118.18 49.5555 115.797C47.4422 114.567 44.5562 114.691 38.8718 114.987C31.8416 115.354 28.3273 115.536 25.7055 116.913C25.3217 117.114 17.3473 121.439 16.798 128.488C16.2393 135.662 24.0761 136.626 25.1213 146.193C25.5908 150.488 24.7545 157.093 24.212 161.377C23.6915 165.491 23.3323 166.544 24.1474 167.79C26.1105 170.792 32.1192 169.936 44.1368 168.226C48.8507 167.554 50.88 167.02 51.909 165.317V165.316Z" fill="#8280F9"/>
<path d="M33.6238 144.654C33.1153 146.518 31.2881 147.911 30.0162 152.447C29.742 153.426 27.7849 160.4 30.3227 162.116C31.7882 163.107 33.1042 161.229 36.6618 160.984C42.8259 160.559 45.7628 165.724 49.7899 164.313C50.4887 164.067 51.4107 163.546 52.332 162.347C52.5154 163.427 52.484 164.366 51.91 165.317C50.8809 167.02 48.8517 167.555 44.1377 168.226C32.1202 169.936 26.1114 170.792 24.1484 167.79C23.3341 166.545 23.6924 165.491 24.2129 161.377C24.7554 157.093 25.5918 150.487 25.1222 146.193C24.0771 136.626 16.2394 135.662 16.7989 128.488C16.9484 126.57 17.6556 124.862 18.6023 123.375C28.5439 127.386 35.2218 138.794 33.6247 144.654H33.6238Z" fill="#8280F9"/>
<path d="M21.0663 158.765L23.0556 160.031C23.4131 159.62 24.2401 158.791 25.5306 158.508C26.9851 158.189 28.6552 158.647 28.6934 159.109C28.7248 159.48 27.7076 159.854 27.5505 159.911C26.2812 160.378 25.3396 159.99 24.8268 160.499C24.6451 160.678 24.4192 161.013 23.8987 161.323C23.762 161.404 23.6194 161.476 23.5438 161.506C22.6965 161.834 21.2437 160.364 21.1189 160.235L21.0663 158.764V158.765Z" fill="url(#paint5_linear_79_3421)"/>
<path d="M26.9434 132.758C28.3826 129.322 29.3794 124.062 27.1064 116.25C12.1308 122.133 4.49351 136.078 7.47539 147.133C9.93341 156.246 18.8774 160.685 20.8727 161.619C21.3371 160.566 21.8015 159.513 22.2651 158.46C19.9531 155.893 17.3474 152.098 17.7159 147.767C18.227 141.763 24.0295 139.713 26.9426 132.758H26.9434Z" fill="#808CF9"/>
<path d="M38.5033 107.919C38.5033 107.919 38.3853 110.531 37.5719 112.487C36.8375 114.254 32.9717 115.365 32.188 115.76C31.4044 116.154 33.6561 117.308 35.9171 117.534C38.1781 117.761 44.6344 117.249 45.7984 116.395C46.9625 115.541 44.8628 115.605 43.2495 115.014C41.6355 114.423 40.7024 111.277 40.9877 109.849C41.2721 108.421 38.5033 107.919 38.5033 107.919Z" fill="url(#paint6_linear_79_3421)"/>
<path d="M42.0795 106.972C43.2529 105.823 43.4168 105.689 43.5441 105.292C44.057 103.698 42.8165 101.514 41.1897 100.977C41.1048 100.949 40.0138 100.601 39.5977 101.073C39.2437 101.473 39.7641 102.027 39.5171 102.799C39.2853 103.522 38.657 103.576 37.4912 104.524C36.5309 105.305 35.9349 105.791 35.7973 106.474C35.5138 107.881 37.2229 109.921 38.7359 109.866C39.2802 109.846 39.4279 109.569 42.0795 106.972Z" fill="url(#paint7_linear_79_3421)"/>
<path d="M38.8845 110.084C38.8845 110.084 40.1318 111.491 42.0311 111.026C43.7318 110.609 43.2979 106.717 42.0532 106.096C41.638 105.889 40.8832 105.906 40.316 106.178C39.9807 106.339 39.8873 106.507 39.3345 106.759C38.8251 106.992 38.6629 106.96 38.5262 107.124C38.3547 107.329 38.2808 107.77 38.8183 108.835C38.4311 108.562 38.0142 108.504 37.7587 108.685C37.7179 108.714 37.6143 108.816 37.5693 108.949C37.4072 109.431 37.9098 109.92 38.8845 110.084Z" fill="url(#paint8_linear_79_3421)"/>
<path d="M181.124 57.3893L181.563 59.7517L172.526 59.7729L94.1073 59.9582C92.09 59.9633 90.2348 61.6257 89.958 63.6715L71.238 188.395C70.9595 190.46 74.1825 193.611 76.188 193.765L110.978 196.43V196.388L163.018 200.368H163.021L163.147 200.421C165.369 200.592 167.407 198.984 167.696 196.804C167.696 196.803 167.696 196.813 167.696 196.812L185.227 63.6478C185.512 61.4869 183.358 57.3825 181.123 57.3893H181.124Z" fill="#311944"/>
<path d="M165.923 194.209C165.636 196.39 163.598 198.02 161.376 197.85L74.3277 191.187C72.3231 191.034 70.928 189.236 71.2065 187.171L88.2242 61.1212C88.5001 59.0754 90.3553 57.413 92.371 57.4071L179.911 57.1667C182.145 57.1608 183.73 58.907 183.446 61.067L165.924 194.209H165.923Z" fill="#6764EA"/>
<path d="M167.08 124.889C166.937 125.969 165.925 126.774 164.819 126.734L88.2064 123.947C87.1951 123.91 86.4836 123.08 86.6229 122.048L88.1291 110.918C88.2683 109.887 89.1913 109.19 90.2034 109.218L166.883 111.341C167.991 111.371 168.774 112.151 168.632 113.23L167.08 124.888L167.08 124.889Z" fill="white"/>
<path d="M164.112 147.503C163.969 148.584 162.957 149.509 161.851 149.454L85.2958 145.684C84.2855 145.634 83.5824 144.67 83.7217 143.637L85.2398 132.292C85.379 131.261 86.3105 130.376 87.3217 130.417L163.924 133.497C165.029 133.542 165.811 134.539 165.668 135.62L164.112 147.503V147.503Z" fill="white"/>
<path style="mix-blend-mode:multiply" opacity="0.1" d="M168.637 113.185C168.456 113.127 168.26 113.094 168.052 113.089L91.3707 110.967C90.3595 110.938 89.4357 111.637 89.2982 112.665L87.7894 123.795C87.786 123.824 87.7835 123.851 87.7809 123.88C87.0032 123.661 86.5031 122.927 86.6203 122.046L88.129 110.917C88.2666 109.888 89.1903 109.188 90.2016 109.218L166.883 111.34C167.971 111.372 168.751 112.127 168.637 113.185Z" fill="#6C56F3"/>
<path style="mix-blend-mode:multiply" opacity="0.1" d="M165.685 135.369C165.501 135.296 165.302 135.252 165.092 135.244L88.4916 132.163C87.4804 132.122 86.5473 133.008 86.4097 134.04L84.8891 145.386C84.8806 145.458 84.8746 145.529 84.8746 145.602C84.0969 145.351 83.6027 144.517 83.7199 143.637L85.2406 132.291C85.3781 131.26 86.3104 130.373 87.3224 130.414L163.923 133.495C164.946 133.539 165.689 134.39 165.685 135.369Z" fill="#565CF3"/>
<path d="M143.753 165.832C143.978 164.125 142.768 162.552 141.047 162.453L101.417 160.185C99.7756 160.091 98.2601 161.469 98.0368 163.131L96.4015 175.42C96.1782 177.084 97.3168 178.677 98.9571 178.789L138.566 181.491C140.287 181.609 141.871 180.16 142.098 178.451L143.753 165.832Z" fill="#6764EA"/>
<path d="M146.745 83.0403C146.223 86.9686 144.199 90.5143 141.321 93.1221C138.219 95.9348 134.134 97.6463 129.885 97.5642C125.657 97.4829 122.099 95.6419 119.814 92.7666C117.707 90.1165 116.674 86.5852 117.192 82.7229C118.267 74.6878 125.673 68.1923 133.799 68.2117C142.002 68.2312 147.83 74.8689 146.745 83.0412L146.745 83.0403Z" fill="#6356F3"/>
<path d="M138.842 78.5754C138.374 82.0949 135.115 84.9152 131.577 84.8728C128.053 84.8305 125.586 81.9637 126.052 78.4696C126.519 74.9764 129.745 72.1586 133.27 72.1747C136.81 72.1908 139.31 75.056 138.842 78.5754H138.842Z" fill="white"/>
<path d="M141.321 93.1222C138.219 95.9348 134.134 97.6463 129.885 97.5642C125.657 97.483 122.099 95.642 119.814 92.7666C122.429 89.1346 126.743 86.7189 131.323 86.7782C135.928 86.8383 139.641 89.3818 141.321 93.1222Z" fill="white"/>
<g style="mix-blend-mode:soft-light" opacity="0.4">
<path d="M183.445 61.067L165.923 194.209C165.636 196.389 163.468 198.01 161.247 197.84L108.965 193.838C106.481 191.303 104.436 188.261 102.976 184.61C102.26 182.82 101.735 180.888 101.386 178.857C100.416 173.235 100.792 166.844 102.207 160.571C103.296 155.743 105.002 150.976 107.187 146.674C108.934 143.235 110.989 140.09 113.284 137.448C114.936 135.546 116.724 133.698 118.608 131.886C120.881 129.699 123.297 127.564 125.789 125.449C131.596 120.517 137.813 115.695 143.57 110.603C156.853 98.8558 167.629 85.7303 165.036 67.0022C164.953 66.4122 164.143 61.8948 163.109 57.2124L179.781 57.1667C182.014 57.1608 183.729 58.907 183.445 61.0662V61.067Z" fill="white"/>
</g>
<defs>
<linearGradient id="paint0_linear_79_3421" x1="144.371" y1="126.193" x2="179.875" y2="130.078" gradientUnits="userSpaceOnUse">
<stop stop-color="#444B8C"/>
<stop offset="1" stop-color="#26264F"/>
</linearGradient>
<linearGradient id="paint1_linear_79_3421" x1="113.087" y1="36.9705" x2="200.383" y2="335.085" gradientUnits="userSpaceOnUse">
<stop stop-color="#444B8C"/>
<stop offset="1" stop-color="#26264F"/>
</linearGradient>
<linearGradient id="paint2_linear_79_3421" x1="29.0213" y1="29.6248" x2="61.9753" y2="79.7163" gradientUnits="userSpaceOnUse">
<stop stop-color="#9685FF"/>
<stop offset="1" stop-color="#9685FF"/>
</linearGradient>
<linearGradient id="paint3_linear_79_3421" x1="79.1401" y1="117.344" x2="67.9679" y2="128.751" gradientUnits="userSpaceOnUse">
<stop stop-color="#FFC444"/>
<stop offset="1" stop-color="#F36F56"/>
</linearGradient>
<linearGradient id="paint4_linear_79_3421" x1="33.7207" y1="234.881" x2="32.5238" y2="221.843" gradientUnits="userSpaceOnUse">
<stop stop-color="#FFC444"/>
<stop offset="1" stop-color="#F36F56"/>
</linearGradient>
<linearGradient id="paint5_linear_79_3421" x1="17.8093" y1="150.086" x2="26.5864" y2="161.98" gradientUnits="userSpaceOnUse">
<stop stop-color="#FFC444"/>
<stop offset="1" stop-color="#F36F56"/>
</linearGradient>
<linearGradient id="paint6_linear_79_3421" x1="42.7999" y1="120.505" x2="34.3484" y2="109.957" gradientUnits="userSpaceOnUse">
<stop stop-color="#FFC444"/>
<stop offset="1" stop-color="#F36F56"/>
</linearGradient>
<linearGradient id="paint7_linear_79_3421" x1="36.3796" y1="116.664" x2="40.8514" y2="101.91" gradientUnits="userSpaceOnUse">
<stop stop-color="#444B8C"/>
<stop offset="1" stop-color="#3E4177"/>
</linearGradient>
<linearGradient id="paint8_linear_79_3421" x1="47.8151" y1="111.495" x2="35.1816" y2="105.853" gradientUnits="userSpaceOnUse">
<stop stop-color="#FFC444"/>
<stop offset="1" stop-color="#F36F56"/>
</linearGradient>
</defs>
</svg>
