<svg width="40" height="41" viewBox="0 0 40 41" fill="none" xmlns="http://www.w3.org/2000/svg">
<g id="Frame 23">
<rect id="Rectangle 34" y="0.461609" width="40" height="40" rx="10" fill="#BDD3FF"/>
<g id="Subtract">
<path d="M18.4523 17.1239C18.7137 16.911 19.0243 16.7562 19.3573 16.6594V19.956C19.018 19.8573 18.7082 19.7001 18.4523 19.4917C17.9992 19.1227 17.8238 18.6887 17.8238 18.3078C17.8238 17.9268 17.9992 17.4928 18.4523 17.1239Z" fill="#4070DB"/>
<path d="M21.0835 25.2804V21.9504C21.4831 22.05 21.8473 22.2187 22.1438 22.4466C22.6345 22.8238 22.8097 23.2555 22.8097 23.6154C22.8097 23.9753 22.6345 24.407 22.1438 24.7843C21.8473 25.0121 21.4831 25.1808 21.0835 25.2804Z" fill="#4070DB"/>
<path fill-rule="evenodd" clip-rule="evenodd" d="M20.2204 9.46161C14.0235 9.46161 9 14.6103 9 20.9616C9 27.3129 14.0235 32.4616 20.2204 32.4616C26.4172 32.4616 31.4407 27.3129 31.4407 20.9616C31.4407 14.6103 26.4172 9.46161 20.2204 9.46161ZM21.0835 13.8847C21.0835 13.3961 20.697 13.0001 20.2204 13.0001C19.7437 13.0001 19.3573 13.3961 19.3573 13.8847V14.8467C18.6358 14.9777 17.9479 15.275 17.3785 15.7386C16.5587 16.406 16.0976 17.3303 16.0976 18.3078C16.0976 19.2852 16.5587 20.2095 17.3785 20.877C17.9568 21.3478 18.6468 21.6398 19.3573 21.7688V25.2804C18.9577 25.1808 18.5936 25.0121 18.2972 24.7843L17.2858 24.0068C16.9045 23.7137 16.3635 23.7929 16.0775 24.1837C15.7915 24.5745 15.8687 25.129 16.2501 25.4222L17.2615 26.1997C17.8751 26.6714 18.6069 26.96 19.3573 27.0835V28.0385C19.3573 28.5271 19.7437 28.9231 20.2204 28.9231C20.697 28.9231 21.0835 28.5271 21.0835 28.0385V27.0836C21.834 26.96 22.5658 26.6714 23.1795 26.1997C24.0369 25.5405 24.5359 24.6139 24.5359 23.6154C24.5359 22.617 24.0369 21.6903 23.1795 21.0312C22.5658 20.5594 21.834 20.2708 21.0835 20.1473V16.6595C21.4163 16.7563 21.7267 16.911 21.9881 17.1239L22.4656 17.5126C22.8388 17.8165 23.3818 17.7527 23.6783 17.3702C23.9748 16.9877 23.9126 16.4312 23.5393 16.1273L23.0619 15.7386C22.4926 15.2751 21.8048 14.9778 21.0835 14.8468V13.8847Z" fill="#4070DB"/>
</g>
</g>
</svg>
