<svg width="322" height="308" viewBox="0 0 322 308" fill="none" xmlns="http://www.w3.org/2000/svg">
<g clip-path="url(#clip0_41_2097)">
<path d="M302.457 208.828C271.381 281.521 189.352 312.744 125.082 307.42C107.534 305.967 72.2256 303.042 44.6574 276.95C-8.28626 226.843 -0.132968 122.104 50.5498 60.4406C57.0764 52.4997 102.255 -0.705114 172.656 0.00658635C224.2 0.527986 260.378 29.6681 264.778 33.2981C270.335 37.884 282.592 48.7817 293.638 66.0704C319.594 106.692 321.876 163.402 302.457 208.827V208.828Z" fill="url(#paint0_linear_41_2097)"/>
<path d="M90.794 201.563C90.7248 201.563 90.6556 201.544 90.5918 201.506C90.4104 201.393 90.3533 201.156 90.4654 200.973C90.7369 200.532 91.015 200.093 91.2996 199.659C91.4172 199.481 91.6558 199.431 91.8349 199.548C92.013 199.665 92.0624 199.905 91.9459 200.083C91.6645 200.511 91.3909 200.944 91.1238 201.378C91.0512 201.497 90.9237 201.563 90.794 201.563Z" fill="#91B3FA"/>
<path d="M183.963 215.559C183.791 215.559 183.635 215.444 183.59 215.269C183.342 214.31 183.064 213.347 182.761 212.409C182.696 212.205 182.807 211.988 183.01 211.923C183.213 211.857 183.431 211.969 183.497 212.172C183.804 213.126 184.088 214.103 184.338 215.076C184.391 215.283 184.267 215.494 184.06 215.547C184.027 215.556 183.995 215.559 183.963 215.559ZM181.414 208.113C181.265 208.113 181.122 208.026 181.059 207.88C180.667 206.972 180.244 206.064 179.8 205.182C179.704 204.992 179.78 204.758 179.971 204.663C180.163 204.566 180.394 204.643 180.49 204.834C180.941 205.73 181.372 206.65 181.77 207.573C181.854 207.769 181.764 207.997 181.568 208.081C181.519 208.103 181.466 208.113 181.416 208.113H181.414ZM177.748 201.149C177.619 201.149 177.494 201.085 177.42 200.969C176.894 200.133 176.335 199.3 175.762 198.495C175.637 198.321 175.678 198.08 175.852 197.956C176.025 197.832 176.266 197.872 176.39 198.046C176.973 198.863 177.54 199.708 178.074 200.556C178.189 200.737 178.134 200.975 177.953 201.09C177.89 201.131 177.818 201.149 177.748 201.149ZM94.4904 196.318C94.4058 196.318 94.32 196.291 94.2486 196.232C94.0826 196.098 94.0562 195.855 94.1892 195.689C94.8179 194.906 95.4785 194.132 96.1512 193.39C96.294 193.231 96.5391 193.219 96.6974 193.363C96.8557 193.506 96.8667 193.752 96.7238 193.91C96.0599 194.642 95.4103 195.404 94.7915 196.174C94.7157 196.27 94.6036 196.318 94.4904 196.318ZM173.062 194.826C172.955 194.826 172.847 194.781 172.77 194.693C172.12 193.943 171.443 193.205 170.757 192.5C170.609 192.347 170.612 192.102 170.765 191.953C170.918 191.805 171.162 191.807 171.311 191.961C172.007 192.677 172.695 193.426 173.355 194.187C173.494 194.349 173.477 194.593 173.316 194.733C173.243 194.797 173.152 194.828 173.063 194.828L173.062 194.826ZM99.8783 190.584C99.7739 190.584 99.6683 190.541 99.5925 190.457C99.4485 190.3 99.4606 190.055 99.6178 189.911C100.359 189.234 101.129 188.571 101.908 187.938C102.074 187.804 102.317 187.829 102.451 187.995C102.587 188.162 102.56 188.405 102.394 188.54C101.627 189.163 100.867 189.816 100.138 190.483C100.064 190.55 99.9706 190.584 99.8772 190.584H99.8783ZM167.474 189.289C167.386 189.289 167.297 189.259 167.225 189.198C166.469 188.556 165.686 187.931 164.9 187.34C164.73 187.211 164.696 186.969 164.823 186.799C164.952 186.628 165.194 186.593 165.364 186.722C166.162 187.322 166.957 187.957 167.725 188.608C167.888 188.746 167.908 188.99 167.77 189.153C167.694 189.243 167.584 189.289 167.475 189.289H167.474ZM106.075 185.735C105.95 185.735 105.828 185.674 105.753 185.562C105.634 185.384 105.683 185.144 105.861 185.025C106.696 184.468 107.559 183.929 108.424 183.422C108.609 183.314 108.844 183.375 108.953 183.56C109.06 183.745 108.999 183.982 108.814 184.089C107.961 184.589 107.112 185.12 106.289 185.669C106.224 185.713 106.149 185.734 106.075 185.734V185.735ZM161.103 184.68C161.035 184.68 160.964 184.661 160.902 184.624C160.057 184.108 159.188 183.611 158.318 183.147C158.128 183.047 158.057 182.812 158.158 182.624C158.258 182.436 158.491 182.363 158.681 182.465C159.565 182.935 160.448 183.44 161.305 183.964C161.486 184.075 161.545 184.314 161.434 184.495C161.361 184.614 161.233 184.68 161.104 184.68H161.103ZM112.938 181.886C112.792 181.886 112.652 181.802 112.587 181.662C112.497 181.468 112.582 181.238 112.775 181.148C113.684 180.727 114.62 180.326 115.554 179.959C115.753 179.881 115.977 179.979 116.055 180.178C116.133 180.377 116.035 180.601 115.838 180.679C114.916 181.041 113.995 181.436 113.1 181.851C113.047 181.875 112.992 181.887 112.938 181.887V181.886ZM154.097 181.108C154.047 181.108 153.997 181.098 153.949 181.079C153.04 180.7 152.104 180.343 151.169 180.016C150.968 179.946 150.861 179.726 150.931 179.523C151.002 179.322 151.222 179.215 151.424 179.286C152.373 179.617 153.323 179.98 154.246 180.364C154.444 180.446 154.537 180.672 154.455 180.87C154.394 181.018 154.25 181.108 154.099 181.108H154.097ZM120.31 179.142C120.142 179.142 119.987 179.03 119.938 178.861C119.88 178.655 119.999 178.442 120.203 178.383C121.167 178.106 122.153 177.856 123.132 177.637C123.34 177.592 123.547 177.721 123.594 177.93C123.641 178.139 123.509 178.345 123.302 178.392C122.337 178.608 121.366 178.854 120.416 179.127C120.381 179.137 120.345 179.143 120.31 179.143V179.142ZM146.626 178.654C146.595 178.654 146.565 178.651 146.534 178.643C145.575 178.408 144.597 178.198 143.624 178.018C143.415 177.98 143.276 177.778 143.314 177.569C143.353 177.358 143.554 177.22 143.764 177.258C144.751 177.44 145.746 177.653 146.717 177.892C146.924 177.943 147.052 178.153 147.001 178.359C146.958 178.535 146.8 178.654 146.626 178.654ZM128.017 177.567C127.825 177.567 127.659 177.424 127.634 177.229C127.608 177.016 127.759 176.824 127.97 176.797C128.964 176.673 129.977 176.576 130.978 176.51C131.188 176.497 131.375 176.658 131.389 176.871C131.403 177.085 131.242 177.268 131.029 177.283C130.043 177.347 129.046 177.442 128.065 177.565C128.049 177.567 128.032 177.569 128.017 177.569V177.567ZM138.867 177.369C138.856 177.369 138.844 177.369 138.833 177.368C137.851 177.283 136.852 177.223 135.862 177.195C135.649 177.188 135.481 177.01 135.488 176.796C135.494 176.586 135.666 176.421 135.873 176.421C135.878 176.421 135.881 176.421 135.886 176.421C136.889 176.451 137.904 176.51 138.902 176.597C139.114 176.616 139.271 176.803 139.252 177.016C139.235 177.218 139.065 177.369 138.867 177.369Z" fill="#91B3FA"/>
<path d="M185.176 221.881C184.984 221.881 184.817 221.738 184.793 221.543C184.728 221.036 184.657 220.53 184.578 220.024C184.544 219.813 184.689 219.615 184.899 219.582C185.109 219.548 185.308 219.693 185.341 219.904C185.422 220.418 185.494 220.932 185.56 221.447C185.587 221.659 185.437 221.852 185.225 221.879C185.209 221.881 185.192 221.882 185.176 221.882V221.881Z" fill="#91B3FA"/>
<path d="M174.657 260.043C174.574 260.043 174.49 260.016 174.419 259.961C174.251 259.829 174.222 259.586 174.354 259.417C174.67 259.015 174.98 258.608 175.284 258.197C175.41 258.026 175.652 257.988 175.824 258.116C175.996 258.243 176.032 258.486 175.906 258.657C175.598 259.074 175.282 259.487 174.962 259.896C174.886 259.993 174.772 260.043 174.657 260.043Z" fill="#91B3FA"/>
<path d="M134.202 279.612H134.2C133.147 279.608 132.078 279.569 131.025 279.5C130.812 279.486 130.651 279.302 130.665 279.089C130.679 278.875 130.866 278.715 131.076 278.728C132.113 278.796 133.165 278.833 134.203 278.838C134.416 278.838 134.589 279.013 134.588 279.226C134.586 279.438 134.414 279.611 134.201 279.611L134.202 279.612ZM139.318 279.38C139.121 279.38 138.953 279.231 138.935 279.03C138.914 278.818 139.07 278.629 139.283 278.609C140.316 278.51 141.361 278.378 142.387 278.215C142.597 278.182 142.796 278.326 142.829 278.536C142.863 278.748 142.719 278.946 142.508 278.979C141.466 279.144 140.405 279.278 139.356 279.378C139.343 279.379 139.33 279.38 139.318 279.38ZM125.965 278.909C125.944 278.909 125.922 278.907 125.901 278.904C124.86 278.73 123.812 278.521 122.786 278.285C122.579 278.236 122.449 278.029 122.496 277.82C122.544 277.612 122.752 277.484 122.96 277.53C123.97 277.763 125.003 277.969 126.029 278.14C126.239 278.176 126.382 278.375 126.346 278.586C126.314 278.775 126.152 278.909 125.966 278.909H125.965ZM147.459 277.93C147.288 277.93 147.132 277.815 147.086 277.642C147.032 277.435 147.155 277.224 147.36 277.17C148.365 276.906 149.375 276.606 150.361 276.279C150.566 276.211 150.782 276.322 150.849 276.525C150.916 276.727 150.806 276.946 150.604 277.013C149.603 277.344 148.577 277.649 147.557 277.917C147.524 277.926 147.491 277.93 147.458 277.93H147.459ZM117.947 276.896C117.906 276.896 117.863 276.89 117.823 276.875C116.825 276.538 115.823 276.164 114.847 275.764C114.65 275.684 114.555 275.458 114.635 275.261C114.717 275.063 114.941 274.969 115.139 275.049C116.1 275.443 117.086 275.811 118.069 276.144C118.271 276.212 118.38 276.432 118.311 276.635C118.256 276.795 118.106 276.897 117.945 276.897L117.947 276.896ZM155.26 275.18C155.111 275.18 154.971 275.095 154.907 274.952C154.82 274.757 154.907 274.528 155.102 274.44C156.05 274.015 156.998 273.556 157.918 273.074C158.107 272.975 158.34 273.047 158.439 273.237C158.537 273.426 158.465 273.66 158.276 273.758C157.342 274.248 156.379 274.715 155.416 275.145C155.364 275.168 155.312 275.179 155.259 275.179L155.26 275.18ZM110.357 273.618C110.296 273.618 110.234 273.604 110.176 273.573C109.246 273.078 108.319 272.548 107.419 271.996C107.238 271.884 107.181 271.646 107.292 271.463C107.404 271.281 107.643 271.225 107.824 271.336C108.709 271.879 109.623 272.403 110.539 272.89C110.727 272.99 110.799 273.225 110.698 273.413C110.629 273.544 110.495 273.618 110.356 273.618H110.357ZM162.512 271.201C162.387 271.201 162.263 271.139 162.189 271.027C162.071 270.849 162.121 270.609 162.299 270.491C163.166 269.919 164.028 269.313 164.86 268.688C165.03 268.559 165.273 268.595 165.4 268.766C165.529 268.937 165.494 269.18 165.323 269.307C164.478 269.941 163.603 270.557 162.724 271.137C162.659 271.18 162.584 271.201 162.512 271.201ZM103.4 269.156C103.319 269.156 103.236 269.129 103.166 269.076C102.327 268.436 101.499 267.762 100.702 267.072C100.54 266.933 100.522 266.688 100.662 266.527C100.802 266.365 101.046 266.347 101.207 266.487C101.992 267.167 102.809 267.831 103.635 268.46C103.804 268.59 103.837 268.832 103.708 269.003C103.632 269.103 103.516 269.155 103.4 269.155V269.156ZM169.036 266.109C168.932 266.109 168.827 266.067 168.752 265.983C168.608 265.826 168.618 265.582 168.776 265.437C169.542 264.735 170.295 263.999 171.016 263.251C171.164 263.097 171.408 263.094 171.562 263.241C171.716 263.389 171.72 263.634 171.572 263.788C170.84 264.547 170.075 265.294 169.298 266.006C169.223 266.075 169.13 266.108 169.036 266.108V266.109ZM97.2548 263.623C97.1526 263.623 97.0504 263.582 96.9745 263.502C96.2535 262.739 95.5446 261.94 94.8642 261.127C94.7268 260.963 94.7488 260.719 94.9126 260.582C95.0774 260.446 95.3203 260.468 95.4566 260.631C96.126 261.431 96.8261 262.219 97.5362 262.97C97.6835 263.125 97.6758 263.371 97.5208 263.517C97.446 263.587 97.3515 263.623 97.2559 263.623H97.2548ZM92.0724 257.176C91.9482 257.176 91.8273 257.116 91.7526 257.006C91.158 256.133 90.5842 255.231 90.0468 254.324C89.9379 254.141 89.9984 253.903 90.1819 253.794C90.3655 253.685 90.6029 253.745 90.7117 253.929C91.2415 254.822 91.8075 255.71 92.3923 256.571C92.5132 256.747 92.467 256.987 92.2901 257.107C92.2241 257.152 92.1483 257.174 92.0735 257.174L92.0724 257.176ZM87.9859 249.983C87.8397 249.983 87.7001 249.9 87.6353 249.759C87.189 248.801 86.7681 247.818 86.3845 246.837C86.3064 246.638 86.4043 246.413 86.6032 246.335C86.8021 246.258 87.0264 246.355 87.1044 246.554C87.4836 247.521 87.898 248.489 88.3365 249.432C88.4266 249.625 88.3431 249.855 88.1497 249.945C88.0969 249.969 88.0409 249.982 87.987 249.982L87.9859 249.983ZM85.115 242.222C84.9468 242.222 84.7907 242.11 84.7435 241.939C84.4588 240.922 84.2027 239.884 83.9829 238.853C83.9378 238.644 84.0708 238.438 84.2797 238.394C84.4863 238.349 84.694 238.482 84.738 238.691C84.9545 239.706 85.2073 240.729 85.4876 241.73C85.5458 241.936 85.4249 242.15 85.2194 242.207C85.1842 242.217 85.1491 242.221 85.115 242.221V242.222Z" fill="#91B3FA"/>
<path d="M83.5366 234.081C83.342 234.081 83.175 233.935 83.153 233.737C83.0958 233.221 83.0464 232.704 83.0046 232.187C82.9881 231.974 83.1464 231.788 83.3585 231.771C83.5783 231.754 83.7575 231.913 83.7751 232.125C83.8158 232.635 83.8641 233.144 83.9213 233.652C83.9444 233.864 83.7916 234.056 83.5794 234.079C83.5651 234.08 83.5509 234.081 83.5366 234.081Z" fill="#91B3FA"/>
<path d="M95.1301 226.224C95.0906 226.483 95.2192 226.739 95.4511 226.861L102.068 230.343C102.339 233.827 103.168 237.292 104.578 240.6L100.326 246.748C100.176 246.963 100.181 247.25 100.336 247.461L105.642 254.696C105.797 254.907 106.07 254.998 106.319 254.919L113.454 252.701C116.185 255.037 119.239 256.868 122.478 258.17L123.816 265.531C123.863 265.79 124.068 265.989 124.327 266.028L133.191 267.388C133.45 267.428 133.705 267.299 133.827 267.067L137.307 260.445C140.788 260.173 144.25 259.344 147.555 257.932L153.698 262.188C153.913 262.338 154.199 262.333 154.411 262.178L161.64 256.868C161.851 256.712 161.941 256.44 161.863 256.19L159.646 249.05C161.981 246.317 163.81 243.259 165.111 240.018L172.467 238.679C172.724 238.632 172.924 238.426 172.963 238.168L174.323 229.297C174.363 229.038 174.234 228.782 174.002 228.66L167.385 225.178C167.114 221.694 166.285 218.229 164.875 214.921L169.127 208.773C169.277 208.558 169.273 208.271 169.118 208.059L163.811 200.825C163.656 200.614 163.383 200.523 163.134 200.601L155.998 202.82C153.268 200.483 150.213 198.653 146.974 197.35L145.636 189.989C145.589 189.73 145.384 189.531 145.125 189.491L136.261 188.132C136.002 188.092 135.747 188.221 135.625 188.453L132.145 195.075C128.664 195.347 125.202 196.176 121.897 197.587L115.754 193.332C115.539 193.182 115.253 193.186 115.041 193.341L107.812 198.652C107.601 198.807 107.511 199.08 107.589 199.33L109.806 206.47C107.471 209.203 105.642 212.26 104.341 215.502L96.9855 216.841C96.7272 216.888 96.5282 217.093 96.4887 217.352L95.1301 226.223V226.224Z" fill="#91B3FA"/>
<path d="M134.72 236.306C132.805 236.306 130.878 235.666 129.289 234.353C127.529 232.899 126.441 230.846 126.224 228.572C126.008 226.299 126.688 224.078 128.141 222.317C131.14 218.681 136.535 218.166 140.167 221.168C141.926 222.622 143.014 224.675 143.231 226.949C143.447 229.222 142.767 231.443 141.314 233.204C139.627 235.249 137.182 236.306 134.72 236.306ZM134.735 220.375C132.606 220.375 130.494 221.289 129.036 223.056C127.779 224.578 127.191 226.498 127.379 228.462C127.566 230.427 128.507 232.201 130.028 233.457C133.166 236.051 137.83 235.607 140.422 232.465C141.678 230.943 142.266 229.023 142.078 227.059C141.891 225.094 140.95 223.32 139.429 222.064C138.056 220.928 136.39 220.375 134.735 220.375Z" fill="#BDD0FB"/>
<path d="M134.966 250.015C133.832 250.015 132.693 249.928 131.551 249.753C125.685 248.853 120.52 245.72 117.008 240.933C116.286 239.948 115.645 238.907 115.096 237.825C115.084 237.801 115.07 237.776 115.058 237.752C115.048 237.732 115.038 237.713 115.03 237.693C115.018 237.67 115.007 237.646 114.995 237.623C114.959 237.553 114.925 237.482 114.891 237.412C114.801 237.224 114.712 237.033 114.627 236.843L115.686 236.369C116.295 237.729 117.054 239.033 117.943 240.247C121.272 244.784 126.167 247.753 131.728 248.607C137.288 249.46 142.846 248.095 147.381 244.764C152.996 240.639 155.971 234.233 155.97 227.745C155.97 223.417 154.644 219.053 151.894 215.304C148.566 210.767 143.671 207.798 138.11 206.944C132.551 206.09 126.991 207.456 122.456 210.786C119.379 213.048 116.975 216.094 115.506 219.597L114.437 219.149C115.988 215.451 118.524 212.236 121.771 209.851C126.554 206.337 132.419 204.896 138.286 205.797C144.152 206.697 149.317 209.829 152.828 214.617C155.729 218.571 157.127 223.177 157.128 227.743C157.129 234.588 153.99 241.347 148.066 245.699C144.212 248.531 139.658 250.016 134.966 250.016V250.015Z" fill="#BDD0FB"/>
<path d="M185.083 254.364C185.014 254.364 184.945 254.345 184.881 254.307C184.7 254.195 184.643 253.957 184.755 253.774C185.031 253.326 185.331 252.886 185.647 252.466C185.776 252.296 186.018 252.262 186.188 252.392C186.358 252.52 186.391 252.763 186.263 252.933C185.962 253.332 185.675 253.751 185.412 254.178C185.339 254.297 185.212 254.363 185.082 254.363L185.083 254.364Z" fill="#91B3FA"/>
<path d="M212.779 254.681C212.646 254.681 212.517 254.613 212.446 254.489C212.084 253.872 211.677 253.273 211.234 252.707C211.069 252.496 210.901 252.293 210.727 252.092C210.587 251.931 210.604 251.687 210.765 251.547C210.926 251.407 211.171 251.424 211.311 251.585C211.492 251.794 211.67 252.01 211.843 252.23C212.306 252.822 212.734 253.451 213.113 254.098C213.221 254.281 213.159 254.519 212.976 254.627C212.914 254.663 212.847 254.68 212.781 254.68L212.779 254.681ZM189.467 249.674C189.346 249.674 189.227 249.618 189.152 249.512C189.028 249.338 189.069 249.097 189.242 248.973C190.082 248.372 190.981 247.849 191.914 247.417C192.109 247.327 192.338 247.413 192.428 247.607C192.518 247.8 192.433 248.03 192.24 248.12C191.351 248.532 190.493 249.031 189.693 249.603C189.625 249.652 189.547 249.676 189.469 249.676L189.467 249.674ZM207.288 249.058C207.219 249.058 207.149 249.039 207.086 249C206.25 248.487 205.361 248.05 204.442 247.701C204.242 247.625 204.142 247.402 204.218 247.202C204.294 247.003 204.518 246.902 204.716 246.977C205.68 247.344 206.613 247.802 207.49 248.341C207.671 248.453 207.729 248.691 207.618 248.873C207.544 248.992 207.418 249.058 207.288 249.058ZM196.778 246.801C196.587 246.801 196.42 246.659 196.396 246.464C196.369 246.252 196.519 246.058 196.73 246.031C197.75 245.902 198.798 245.866 199.819 245.928C200.033 245.941 200.194 246.124 200.182 246.337C200.169 246.551 199.989 246.715 199.773 246.7C198.801 246.642 197.801 246.675 196.829 246.799C196.812 246.801 196.796 246.803 196.779 246.803L196.778 246.801Z" fill="#91B3FA"/>
<path d="M214.849 260.771C214.657 260.771 214.49 260.629 214.466 260.434C214.403 259.938 214.314 259.437 214.204 258.948C214.157 258.739 214.288 258.532 214.496 258.485C214.705 258.438 214.91 258.568 214.958 258.776C215.074 259.29 215.166 259.813 215.233 260.335C215.26 260.547 215.11 260.741 214.898 260.767C214.882 260.769 214.865 260.77 214.849 260.77V260.771Z" fill="#91B3FA"/>
<path d="M210.85 273.617C210.758 273.617 210.665 273.584 210.592 273.518C210.433 273.375 210.42 273.131 210.563 272.973C210.898 272.601 211.218 272.207 211.516 271.803C211.642 271.632 211.884 271.594 212.057 271.722C212.228 271.848 212.266 272.09 212.138 272.263C211.825 272.687 211.489 273.099 211.138 273.49C211.062 273.574 210.957 273.617 210.851 273.617H210.85Z" fill="#91B3FA"/>
<path d="M198.849 278.979C198.145 278.979 197.435 278.934 196.736 278.843C196.524 278.816 196.375 278.622 196.402 278.411C196.43 278.2 196.622 278.049 196.834 278.077C197.792 278.199 198.765 278.234 199.729 278.18C199.934 278.17 200.125 278.331 200.136 278.544C200.148 278.758 199.985 278.94 199.772 278.952C199.464 278.97 199.155 278.978 198.849 278.979ZM204.461 277.971C204.305 277.971 204.156 277.874 204.098 277.719C204.023 277.519 204.126 277.297 204.326 277.222C205.229 276.885 206.107 276.462 206.936 275.965C207.119 275.855 207.356 275.914 207.466 276.097C207.576 276.279 207.516 276.517 207.334 276.627C206.466 277.149 205.543 277.594 204.596 277.947C204.551 277.963 204.506 277.971 204.461 277.971ZM192.156 277.533C192.103 277.533 192.048 277.522 191.997 277.498C191.074 277.079 190.185 276.572 189.358 275.991C189.183 275.869 189.141 275.627 189.263 275.452C189.386 275.277 189.627 275.234 189.802 275.357C190.591 275.911 191.436 276.394 192.317 276.793C192.511 276.881 192.597 277.111 192.509 277.304C192.444 277.447 192.303 277.532 192.156 277.532V277.533ZM186.096 272.741C185.98 272.741 185.867 272.689 185.79 272.591C185.166 271.788 184.614 270.927 184.15 270.03C184.052 269.84 184.126 269.607 184.315 269.509C184.505 269.41 184.738 269.485 184.836 269.675C185.278 270.53 185.804 271.351 186.399 272.117C186.53 272.285 186.5 272.528 186.332 272.659C186.262 272.714 186.178 272.741 186.095 272.741H186.096Z" fill="#91B3FA"/>
<path d="M182.946 265.668C182.762 265.668 182.599 265.536 182.565 265.349C182.474 264.833 182.406 264.305 182.363 263.779C182.347 263.567 182.505 263.38 182.717 263.362C182.927 263.345 183.116 263.503 183.133 263.716C183.174 264.217 183.239 264.72 183.326 265.213C183.363 265.423 183.224 265.625 183.013 265.662C182.989 265.666 182.966 265.668 182.944 265.668H182.946Z" fill="#91B3FA"/>
<path d="M186.451 261.877C186.439 261.958 186.479 262.04 186.552 262.078L188.639 263.177C188.725 264.276 188.986 265.368 189.43 266.412L188.089 268.352C188.042 268.42 188.043 268.51 188.093 268.577L189.767 270.858C189.816 270.926 189.902 270.953 189.98 270.929L192.23 270.229C193.091 270.966 194.054 271.544 195.077 271.954L195.499 274.276C195.514 274.358 195.578 274.42 195.66 274.433L198.455 274.862C198.537 274.875 198.618 274.834 198.656 274.761L199.754 272.672C200.852 272.587 201.944 272.325 202.987 271.88L204.925 273.222C204.993 273.27 205.083 273.269 205.15 273.219L207.43 271.544C207.497 271.495 207.524 271.408 207.5 271.33L206.801 269.079C207.537 268.216 208.114 267.253 208.524 266.23L210.843 265.807C210.925 265.793 210.987 265.728 211.001 265.646L211.429 262.848C211.441 262.767 211.401 262.685 211.328 262.647L209.241 261.548C209.155 260.449 208.894 259.357 208.45 258.314L209.79 256.375C209.838 256.307 209.837 256.216 209.787 256.149L208.113 253.868C208.065 253.801 207.978 253.773 207.9 253.797L205.65 254.497C204.789 253.76 203.826 253.183 202.803 252.772L202.381 250.45C202.367 250.369 202.302 250.306 202.22 250.293L199.425 249.864C199.343 249.852 199.262 249.892 199.223 249.965L198.125 252.053C197.027 252.139 195.936 252.4 194.894 252.845L192.956 251.503C192.888 251.456 192.798 251.457 192.731 251.506L190.451 253.181C190.384 253.231 190.357 253.317 190.381 253.395L191.08 255.647C190.344 256.509 189.767 257.473 189.357 258.496L187.036 258.918C186.955 258.932 186.892 258.997 186.879 259.08L186.451 261.877Z" fill="#91B3FA"/>
<path d="M198.937 265.453C198.243 265.453 197.546 265.222 196.971 264.746C195.658 263.66 195.471 261.706 196.556 260.391C197.642 259.076 199.593 258.889 200.907 259.975C201.544 260.501 201.938 261.244 202.016 262.066C202.094 262.889 201.848 263.693 201.323 264.33C200.713 265.069 199.828 265.452 198.938 265.452L198.937 265.453ZM197.709 263.851C198.107 264.18 198.611 264.334 199.122 264.285C199.636 264.236 200.099 263.99 200.428 263.592C200.757 263.194 200.911 262.691 200.861 262.177C200.812 261.664 200.565 261.199 200.168 260.87C199.347 260.192 198.127 260.308 197.448 261.13C196.77 261.952 196.887 263.173 197.708 263.851H197.709Z" fill="#91B3FA"/>
<path d="M199.008 269.773C196.729 269.773 194.48 268.727 193.03 266.751C193.011 266.725 192.993 266.699 192.974 266.673C192.71 266.303 192.48 265.912 192.29 265.504C192.287 265.495 192.283 265.486 192.278 265.478C192.275 265.472 192.273 265.466 192.269 265.46L192.266 265.453C192.256 265.432 192.246 265.41 192.238 265.388L193.296 264.914C193.476 265.318 193.702 265.705 193.965 266.065C193.99 266.098 194.015 266.131 194.04 266.164C195.553 268.143 198.035 268.971 200.334 268.471C201.151 268.293 201.946 267.948 202.665 267.425C202.675 267.418 202.685 267.411 202.695 267.404C204.039 266.417 204.919 264.964 205.171 263.314C205.22 262.993 205.245 262.672 205.245 262.353C205.245 261.033 204.828 259.752 204.032 258.667C201.994 255.89 198.079 255.288 195.303 257.327C194.391 257.998 193.677 258.901 193.242 259.94L192.174 259.491C192.69 258.259 193.536 257.188 194.617 256.392C197.908 253.975 202.551 254.687 204.967 257.981C205.91 259.266 206.404 260.786 206.404 262.351C206.404 262.728 206.376 263.109 206.317 263.488C206.017 265.445 204.974 267.167 203.38 268.338C202.064 269.306 200.529 269.773 199.008 269.773Z" fill="#BDD0FB"/>
<path d="M88.7389 186.551C88.7389 186.551 89.605 150.127 72.8412 140.379C56.0784 130.63 24.205 124.535 23.0103 72.2337C22.3112 41.6141 21.5539 28.2271 21.0461 22.3894C20.8483 20.1124 22.8707 18.2743 25.114 18.6978C40.9897 21.6909 92.5649 34.0109 103.378 69.2417C116.197 111.008 88.7378 186.552 88.7378 186.552L88.7389 186.551Z" fill="#BDD0FB"/>
<path d="M37.3933 33.2486C54.8209 48.8037 74.9723 76.3323 85.7129 103.862C87.0912 108.399 91.125 118.048 92.8759 135.19C94.4399 149.488 93.6628 164.595 91.7657 174.595C91.6459 175.228 91.037 175.643 90.405 175.523C89.3191 175.317 89.4631 174.148 89.473 174.184C91.6393 157.098 90.7403 135.83 85.7766 116.642C79.4358 93.0798 65.2923 70.2361 50.663 50.8618L49.1572 48.9544C37.823 34.3871 35.4368 34.2804 36.4964 33.2651C36.747 33.0253 37.1383 33.0231 37.3933 33.2497V33.2486Z" fill="url(#paint1_linear_41_2097)"/>
<path d="M72.5267 140.745C70.8879 129.682 68.9447 115.622 59.8593 107.915C49.2715 98.934 13.2434 104.604 1.45417 106.759C-0.0186499 107.029 -0.514354 108.891 0.632031 109.855C6.28482 114.607 18.3785 125.814 21.5296 137.111C24.4159 147.456 32.3835 155.604 41.8348 160.326C46.9897 162.902 50.8861 162.522 56.2026 163.432C62.6302 164.534 68.2874 168.364 74.9173 168.681C75.0085 159.266 73.9149 150.069 72.5267 140.746V140.745Z" fill="#91B3FA"/>
<path d="M18.0344 113.049C33.0748 113.679 49.2198 120.546 57.4127 133.426L58.1865 134.654C59.9725 137.536 70.0943 158.023 75.7164 175.004C75.7867 175.216 75.6713 175.444 75.4603 175.515C75.1008 175.634 74.9206 175.238 74.9558 175.273C71.0385 165.679 65.4132 153.516 60.9332 144.42C56.1289 134.495 52.7656 127.773 41.8062 121.334C29.6082 114.4 17.9542 113.687 17.9893 113.694C17.8113 113.675 17.6816 113.517 17.7003 113.338C17.7179 113.167 17.8662 113.04 18.0355 113.048L18.0344 113.049Z" fill="#BDD0FB"/>
<path d="M28.3464 188.863C28.3464 188.863 58.2338 267.749 67.6763 284.159C78.6368 303.207 110.649 291.069 109.055 275.128C107.462 259.185 70.0614 193.292 70.0614 193.292L28.3464 188.865V188.863Z" fill="url(#paint2_linear_41_2097)"/>
<path d="M68.7292 131.4L254.489 66.9427L252.538 241.374L63.6523 199.196L68.7292 131.4Z" fill="#5664E6"/>
<path d="M254.663 244.306C264.743 244.306 272.913 204.172 272.913 154.664C272.913 105.157 264.743 65.0232 254.663 65.0232C244.584 65.0232 236.414 105.157 236.414 154.664C236.414 204.172 244.584 244.306 254.663 244.306Z" fill="#BAC9FE"/>
<path d="M256.048 238.176C254.398 236.498 250.805 230.021 247.725 213.272C244.747 197.087 243.107 176.093 243.107 154.159C243.107 132.225 244.747 111.232 247.725 95.0466C250.805 78.298 254.398 71.8212 256.048 70.1426C257.698 71.8212 261.291 78.298 264.372 95.0466C267.349 111.232 268.989 132.225 268.989 154.159C268.989 176.093 267.349 197.087 264.372 213.272C261.291 230.021 257.698 236.498 256.048 238.176Z" fill="#5664E5"/>
<mask id="mask0_41_2097" style="mask-type:luminance" maskUnits="userSpaceOnUse" x="243" y="70" width="48" height="169">
<path d="M256.048 238.176C254.398 236.498 250.805 230.021 247.725 213.272C244.747 197.087 243.107 176.093 243.107 154.159C243.107 132.225 244.747 111.232 247.725 95.0466C250.805 78.298 254.398 71.8212 256.048 70.1426C257.698 71.8212 261.291 78.298 264.372 95.0466C267.349 111.232 290.843 132.225 290.843 154.159C290.843 176.093 267.348 197.087 264.372 213.272C261.291 230.021 257.698 236.498 256.048 238.176Z" fill="white"/>
</mask>
<g mask="url(#mask0_41_2097)">
<path d="M279.441 153.491C279.441 168.721 271.242 181.069 255.016 181.069C238.79 181.069 225.635 168.721 225.635 153.491C225.635 138.26 238.79 125.913 255.016 125.913C271.242 125.913 279.441 138.26 279.441 153.491Z" fill="url(#paint3_linear_41_2097)"/>
</g>
<path d="M38.7694 127.651C47.5074 126.635 60.0385 126.269 73.5874 129.374C69.1239 152.71 69.7976 177.033 74.9602 202.219H36.7459C30.6535 202.219 25.4579 197.79 24.5083 191.766C22.6035 179.694 20.2756 159.403 22.7585 143.106C24.0049 134.927 30.559 128.603 38.7705 127.648L38.7694 127.651Z" fill="url(#paint4_linear_41_2097)"/>
<path d="M61.7026 145.523H31.9296C30.9195 145.523 30.027 144.993 29.5445 144.104C29.062 143.216 29.1016 142.178 29.65 141.329C29.8797 140.974 30.3535 140.874 30.7085 141.102C31.0635 141.332 31.1646 141.806 30.9349 142.163C30.6953 142.532 30.6788 142.985 30.8887 143.373C31.0998 143.76 31.4889 143.991 31.9285 143.991H61.7015C62.3544 143.991 62.8853 143.46 62.8853 142.806V140.686C62.8853 140.032 62.3544 139.501 61.7015 139.501H31.7076C31.2844 139.501 30.9415 139.158 30.9415 138.734C30.9415 138.311 31.2844 137.967 31.7076 137.967H61.7015C63.1985 137.967 64.4164 139.186 64.4164 140.684V142.805C64.4164 144.303 63.1985 145.522 61.7015 145.522L61.7026 145.523Z" fill="#91B3FA"/>
<path d="M59.0481 158.719H29.2751C28.265 158.719 27.3725 158.189 26.89 157.3C26.4075 156.411 26.447 155.374 26.9955 154.525C27.2252 154.17 27.7 154.069 28.0539 154.298C28.409 154.528 28.5101 155.002 28.2804 155.358C28.0408 155.729 28.0243 156.18 28.2342 156.568C28.4452 156.956 28.8343 157.187 29.274 157.187H59.047C59.6999 157.187 60.2307 156.655 60.2307 156.002V153.882C60.2307 153.229 59.6999 152.698 59.047 152.698H29.053C28.6299 152.698 28.287 152.354 28.287 151.931C28.287 151.507 28.6299 151.164 29.053 151.164H59.047C60.544 151.164 61.7618 152.383 61.7618 153.882V156.002C61.7618 157.5 60.544 158.719 59.047 158.719H59.0481Z" fill="#91B3FA"/>
<path opacity="0.69" d="M95.7214 126.679C95.3972 126.679 95.096 126.471 94.9927 126.146C94.8641 125.742 95.0872 125.312 95.4895 125.183L236.182 80.377C236.584 80.2483 237.015 80.4716 237.143 80.8753C237.272 81.279 237.049 81.7091 236.646 81.8378L95.9544 126.644C95.8775 126.668 95.7995 126.68 95.7214 126.68V126.679Z" fill="white"/>
<path opacity="0.69" d="M76.6957 134.463C76.3935 134.463 76.1077 134.284 75.9868 133.987C75.8263 133.595 76.0143 133.147 76.4056 132.988L83.6466 130.026C84.0379 129.864 84.4852 130.053 84.6446 130.445C84.805 130.836 84.6171 131.284 84.2258 131.443L76.9848 134.406C76.8903 134.444 76.7924 134.463 76.6957 134.463Z" fill="white"/>
<path d="M61.7025 174.174H31.9295C30.9194 174.174 30.028 173.644 29.5444 172.755C29.0619 171.866 29.1004 170.829 29.6499 169.98C29.8796 169.624 30.3534 169.524 30.7084 169.752C31.0634 169.982 31.1645 170.456 30.9348 170.811C30.6952 171.182 30.6776 171.634 30.8886 172.022C31.0997 172.41 31.4877 172.641 31.9284 172.641H61.7014C62.3543 172.641 62.8852 172.109 62.8852 171.456V169.336C62.8852 168.683 62.3543 168.152 61.7014 168.152H31.7075C31.2843 168.152 30.9414 167.808 30.9414 167.385C30.9414 166.961 31.2843 166.618 31.7075 166.618H61.7014C63.1984 166.618 64.4163 167.837 64.4163 169.335V171.455C64.4163 172.953 63.1984 174.173 61.7014 174.173L61.7025 174.174Z" fill="#91B3FA"/>
<path d="M64.4911 191.33H34.7181C33.708 191.33 32.8166 190.799 32.333 189.911C31.8505 189.022 31.8889 187.984 32.4385 187.135C32.6682 186.78 33.143 186.68 33.497 186.908C33.852 187.137 33.9531 187.612 33.7234 187.967C33.4838 188.338 33.4662 188.79 33.6772 189.178C33.8882 189.565 34.2762 189.796 34.717 189.796H64.49C65.1429 189.796 65.6738 189.265 65.6738 188.611V186.491C65.6738 185.837 65.1429 185.306 64.49 185.306H34.4961C34.0729 185.306 33.73 184.963 33.73 184.539C33.73 184.116 34.0729 183.773 34.4961 183.773H64.49C65.987 183.773 67.2048 184.991 67.2048 186.49V188.61C67.2048 190.109 65.987 191.327 64.49 191.327L64.4911 191.33Z" fill="#91B3FA"/>
<path d="M91.0822 284.599C89.7105 284.599 88.3234 284.45 86.9407 284.149C80.8879 282.829 75.9594 278.835 73.4204 273.189L49.6332 220.301C49.4596 219.915 49.631 219.462 50.0168 219.288C50.4026 219.115 50.8554 219.288 51.0291 219.673L74.8163 272.561C77.1541 277.759 81.6924 281.437 87.2661 282.652C92.7441 283.847 98.2881 282.428 102.477 278.76C102.701 278.563 102.927 278.362 103.154 278.155C103.466 277.87 103.95 277.891 104.235 278.203C104.52 278.516 104.499 279.001 104.187 279.286C103.952 279.5 103.719 279.709 103.486 279.913C99.9873 282.976 95.6194 284.599 91.0833 284.599H91.0822Z" fill="#91B3FA"/>
<path d="M46.8139 212.934C46.5215 212.934 46.2435 212.765 46.1149 212.483L43.4616 206.582C43.2879 206.196 43.4594 205.743 43.8452 205.569C44.231 205.395 44.6838 205.569 44.8575 205.953L47.5108 211.852C47.6844 212.238 47.5129 212.692 47.1272 212.865C47.0249 212.912 46.9183 212.932 46.8139 212.932V212.934Z" fill="#91B3FA"/>
<path d="M275.091 152.698C274.693 152.698 274.356 152.39 274.328 151.986C273.799 144.522 271.214 138.959 266.646 135.448C258.745 129.379 247.473 131.464 247.36 131.486C246.942 131.565 246.543 131.295 246.463 130.879C246.383 130.463 246.654 130.062 247.069 129.981C247.557 129.887 259.137 127.747 267.578 134.232C272.509 138.02 275.294 143.957 275.854 151.876C275.884 152.298 275.566 152.665 275.144 152.694C275.126 152.695 275.108 152.696 275.089 152.696L275.091 152.698Z" fill="#91B3FA"/>
<path d="M315.51 203.498L292.695 200.648L295.653 189.028L270.434 181.309L307.455 183.125L302.558 195.121L315.51 203.498Z" fill="#3D4DE1"/>
<path d="M298.946 270.694L283.576 259.732L290.24 252.494L275.03 237.078L301.064 252.834L292.853 259.588L298.946 270.694Z" fill="#5664E5"/>
<path d="M322 62.7836L303.927 91.2527L295.109 83.9487L278.145 102.594L294.835 71.3372L303.186 80.4705L322 62.7836Z" fill="#5664E5"/>
</g>
<defs>
<linearGradient id="paint0_linear_41_2097" x1="333.973" y1="348.044" x2="107.624" y2="103.927" gradientUnits="userSpaceOnUse">
<stop stop-color="#DAE3FE"/>
<stop offset="1" stop-color="#E9EFFD"/>
</linearGradient>
<linearGradient id="paint1_linear_41_2097" x1="146.06" y1="-28.0841" x2="35.799" y2="149.353" gradientUnits="userSpaceOnUse">
<stop stop-color="#DAE3FE"/>
<stop offset="1" stop-color="#E9EFFD"/>
</linearGradient>
<linearGradient id="paint2_linear_41_2097" x1="47.9196" y1="170.517" x2="91.2583" y2="296.561" gradientUnits="userSpaceOnUse">
<stop stop-color="#09005D"/>
<stop offset="1" stop-color="#1A0F91"/>
</linearGradient>
<linearGradient id="paint3_linear_41_2097" x1="297.892" y1="128.069" x2="201.254" y2="184.46" gradientUnits="userSpaceOnUse">
<stop stop-color="#09005D"/>
<stop offset="1" stop-color="#1A0F91"/>
</linearGradient>
<linearGradient id="paint4_linear_41_2097" x1="167.666" y1="67.8205" x2="108.12" y2="118.819" gradientUnits="userSpaceOnUse">
<stop stop-color="#09005D"/>
<stop offset="1" stop-color="#1A0F91"/>
</linearGradient>
<clipPath id="clip0_41_2097">
<rect width="322" height="308" fill="white"/>
</clipPath>
</defs>
</svg>
