<svg width="40" height="40" viewBox="0 0 40 40" fill="none" xmlns="http://www.w3.org/2000/svg">
<rect width="40" height="40" rx="10" fill="#DEDEDE"/>
<path fill-rule="evenodd" clip-rule="evenodd" d="M19.4843 10.1697C19.7735 9.89578 20.2265 9.89578 20.5157 10.1697C22.5325 12.0797 25.2538 13.25 28.25 13.25C28.2977 13.25 28.3453 13.2497 28.3928 13.2491C28.7202 13.2451 29.0123 13.4538 29.1146 13.7648C29.5271 15.0196 29.75 16.3595 29.75 17.7501C29.75 23.6921 25.6859 28.683 20.1869 30.0983C20.0643 30.1299 19.9357 30.1299 19.8131 30.0983C14.3141 28.683 10.25 23.6921 10.25 17.7501C10.25 16.3595 10.4729 15.0196 10.8854 13.7648C10.9877 13.4538 11.2798 13.2451 11.6072 13.2491C11.6547 13.2497 11.7023 13.25 11.75 13.25C14.7462 13.25 17.4675 12.0797 19.4843 10.1697ZM20 16.25C20.4142 16.25 20.75 16.5858 20.75 17V20.75C20.75 21.1642 20.4142 21.5 20 21.5C19.5858 21.5 19.25 21.1642 19.25 20.75V17C19.25 16.5858 19.5858 16.25 20 16.25ZM20 23C19.5858 23 19.25 23.3358 19.25 23.75V23.7575C19.25 24.1717 19.5858 24.5075 20 24.5075H20.0075C20.4217 24.5075 20.7575 24.1717 20.7575 23.7575V23.75C20.7575 23.3358 20.4217 23 20.0075 23H20Z" fill="#656565"/>
</svg>
