<svg width="40" height="41" viewBox="0 0 40 41" fill="none" xmlns="http://www.w3.org/2000/svg">
<g id="Frame 23">
<rect id="Rectangle 34" y="0.461609" width="40" height="40" rx="10" fill="#BDD3FF"/>
<g id="Union">
<path d="M12.2857 13.9795C12.2857 11.4843 14.3085 9.46161 16.8036 9.46161C19.2988 9.46161 21.3215 11.4843 21.3215 13.9795C21.3215 16.4747 19.2988 18.4974 16.8036 18.4974C14.3085 18.4974 12.2857 16.4747 12.2857 13.9795Z" fill="#4070DB"/>
<path d="M22.9644 16.4438C22.9644 14.4023 24.6193 12.7473 26.6608 12.7473C28.7023 12.7473 30.3573 14.4023 30.3573 16.4438C30.3573 18.4853 28.7023 20.1403 26.6608 20.1403C24.6193 20.1403 22.9644 18.4853 22.9644 16.4438Z" fill="#4070DB"/>
<path d="M9 27.9439C9 23.6341 12.4938 20.1403 16.8036 20.1403C21.1135 20.1403 24.6073 23.6341 24.6073 27.9439V27.9467C24.6072 27.9903 24.6069 28.0341 24.6061 28.0774C24.6014 28.3606 24.4511 28.6213 24.2085 28.7673C22.0452 30.0699 19.5106 30.8189 16.8036 30.8189C14.0966 30.8189 11.5621 30.0699 9.39874 28.7673C9.15614 28.6213 9.00588 28.3606 9.00112 28.0774C9.00038 28.033 9 27.9885 9 27.9439Z" fill="#4070DB"/>
<path d="M26.25 27.9473C26.2499 28 26.2495 28.0527 26.2486 28.1051C26.2424 28.476 26.1529 28.8341 25.9935 29.1563C26.2142 29.1694 26.4367 29.176 26.6607 29.176C28.4084 29.176 30.0638 28.7712 31.5363 28.0493C31.8068 27.9167 31.983 27.6466 31.9954 27.3456C31.9985 27.2715 32 27.1971 32 27.1225C32 24.1736 29.6095 21.7831 26.6607 21.7831C25.8431 21.7831 25.0685 21.9669 24.3758 22.2953C25.553 23.8708 26.25 25.826 26.25 27.9439V27.9473Z" fill="#4070DB"/>
</g>
</g>
</svg>
